<svg width="94" height="123" viewBox="0 0 94 123" fill="none" xmlns="http://www.w3.org/2000/svg">
<path d="M53.8658 115.196C54.9908 115.085 56.16 114.952 57.3733 114.752C61.9396 116.882 65.072 119.766 64.3881 121.275C63.7043 122.805 59.3365 122.317 54.6379 120.165C51.0422 118.524 48.2848 116.394 47.5127 114.819C49.5642 115.218 51.6819 115.396 53.8658 115.196Z" fill="#E57607"/>
<path d="M20.0047 115.196C18.8797 115.085 17.7105 114.952 16.4973 114.752C11.931 116.882 8.79852 119.766 9.48237 121.275C10.1662 122.805 14.534 122.317 19.2326 120.165C22.8283 118.524 25.5857 116.394 26.3578 114.819C24.3063 115.218 22.1886 115.396 20.0047 115.196Z" fill="#E57607"/>
<path d="M87.8369 58.4271C87.7486 58.0944 87.9472 57.7616 88.1457 57.4954C88.3442 57.2292 88.5869 56.963 88.6751 56.6302C88.7413 56.2975 88.5648 55.876 88.2119 55.876C88.0354 55.876 87.881 55.9647 87.7486 56.0534C87.3516 56.3197 86.9324 56.5859 86.5133 56.8521C85.5648 57.4732 84.5941 58.0944 83.6456 58.7155C83.425 58.8486 83.2265 58.9817 83.0059 59.137C83.7559 61.3554 84.8368 63.4851 85.6751 65.6591C86.4251 67.5891 87.3074 69.3638 88.2781 71.1386C89.1825 70.6505 90.1311 70.2956 91.0576 69.8075C91.2782 69.6966 91.4767 69.5857 91.6752 69.4526C91.9179 69.2973 92.1826 69.1198 92.2708 68.8314C92.3591 68.5652 92.2267 68.1881 91.9399 68.1437C91.7193 68.1215 91.4767 68.2546 91.3002 68.1437C91.1017 68.0106 91.1899 67.7 91.3443 67.5226C91.4987 67.3451 91.6752 67.1454 91.6532 66.9014C91.587 66.4134 90.7708 66.5465 90.484 66.1472C90.0649 65.5704 91.1899 64.7274 90.7487 64.1728C90.5502 63.9066 90.1311 63.9288 89.8443 63.7735C89.4913 63.5738 89.359 63.108 89.4472 62.7086C89.5134 62.3093 89.734 61.9544 89.9546 61.6216C89.9987 61.5329 90.0649 61.4442 90.0649 61.3332C90.0649 61.1336 89.8443 61.0005 89.6458 60.9561C89.4472 60.9117 89.2266 60.9339 89.0722 60.8008C88.6972 60.5124 88.9619 59.9135 89.2487 59.5585C89.5355 59.1814 89.8002 58.6046 89.4252 58.3162C88.9619 57.9835 88.3663 58.5824 87.8369 58.4271Z" fill="#B30404"/>
<path d="M87.1093 59.8913C86.8667 58.893 86.6461 57.8725 86.5358 56.8521C85.5872 57.4732 84.6166 58.0944 83.668 58.7155C83.4474 58.8486 83.2489 58.9817 83.0283 59.137C83.7783 61.3554 84.8593 63.4851 85.6975 65.6591C86.4475 67.5891 87.3299 69.3638 88.3005 71.1385C89.205 70.6505 90.1535 70.2955 91.08 69.8075C89.9771 68.2546 89.0947 66.5465 88.4329 64.7274C87.8593 63.1523 87.4843 61.5329 87.1093 59.8913Z" fill="#8D0000"/>
<path d="M89.2271 70.6285C88.6536 68.6097 88.0801 66.5688 87.4624 64.5723C87.3521 64.1729 87.2197 63.7958 87.1094 63.3965C87.0653 63.219 86.9991 63.0637 86.955 62.8863C86.8227 62.487 86.7124 62.0876 86.58 61.6883C86.4697 61.3556 86.3815 61.0228 86.2712 60.6901C85.8962 59.5365 85.5432 58.3829 85.1461 57.2294C83.4476 58.2498 81.7269 59.1594 79.8739 59.7583C79.3445 59.9358 78.793 60.0911 78.2415 60.202C78.1754 60.2242 78.1092 60.2242 78.043 60.2464C77.5356 60.3573 77.0062 60.4239 76.4768 60.4904C75.2635 60.6235 74.0503 60.6013 72.859 60.4239C72.4399 60.3795 72.0208 60.2908 71.6237 60.202C71.3811 60.1576 71.1605 60.0911 70.9178 60.0245C70.5649 59.9358 70.234 59.8249 69.881 59.714C68.2045 59.1594 66.5942 58.3829 64.9618 57.6287C64.6309 57.4734 64.322 57.3403 64.0132 57.185C63.5279 56.9632 63.0205 56.7413 62.5352 56.5417C61.697 56.1867 60.8367 55.8983 59.9543 55.6543C57.6601 57.2959 55.1894 58.6935 52.8732 59.958C50.0055 61.5109 47.0054 62.8863 43.9171 63.9733C43.7185 64.0398 43.4979 64.1064 43.2773 64.1729C45.0421 64.1729 48.1966 65.5705 49.0128 65.8589C49.8731 66.1695 50.7334 66.5688 51.5276 67.0125C52.1894 67.3674 52.8291 67.7667 53.4467 68.2104C54.1747 68.6985 54.8806 69.2309 55.5645 69.7855C56.0718 70.1848 56.5571 70.6063 57.0424 71.0056C57.6822 71.5602 58.3219 72.1148 58.9837 72.6694C59.2263 72.8912 59.491 73.0909 59.7337 73.3127C61.1675 74.5107 62.6235 75.6642 64.2117 76.596C64.8956 76.9953 65.5794 77.3724 66.3074 77.683C66.3736 77.7052 66.4177 77.7274 66.4839 77.7495C69.4398 78.9918 72.3958 79.3024 75.2635 78.8587C75.7488 78.7922 76.2341 78.6813 76.7194 78.5703C77.2268 78.4594 77.7121 78.3041 78.1974 78.1489C78.9474 77.8826 79.6975 77.5721 80.4475 77.2171C81.4181 76.7513 82.3446 76.2188 83.249 75.6199C85.102 74.3776 86.8447 73.0022 88.5212 71.538C88.786 71.3162 89.0507 71.0722 89.3154 70.8503C89.2713 70.7838 89.2492 70.695 89.2271 70.6285Z" fill="#D9811A"/>
<path d="M89.2285 70.6302C88.655 68.6115 88.0814 66.5706 87.4638 64.574C87.3535 64.1747 87.2211 63.7976 87.1108 63.3982C87.0667 63.2208 87.0005 63.0655 86.9564 62.888C86.2505 63.4648 85.5225 64.0194 84.7946 64.5518C82.346 66.3487 79.6988 67.8572 76.8973 69.0552C73.9193 70.3418 70.6545 71.2957 67.4338 70.8964C64.3896 70.5193 61.6763 69.0108 59.1836 67.1473C60.8601 63.8419 61.9631 60.2481 62.5587 56.5656C61.7204 56.2106 60.8601 55.9222 59.9777 55.6782C57.6835 57.3198 55.2129 58.7174 52.8966 59.9819C50.0289 61.5348 47.0288 62.9102 43.9405 63.9972C43.742 64.0638 43.5214 64.1303 43.3008 64.1969C45.0655 64.1969 48.22 65.5945 49.0362 65.8828C50.0068 66.2378 50.9113 66.6815 51.7937 67.1917C51.9922 67.3026 52.1907 67.4135 52.3893 67.5466C52.5657 67.6576 52.7202 67.7685 52.8966 67.8794C53.0511 67.9903 53.2275 68.1012 53.3819 68.2122C53.4922 68.2787 53.5805 68.3453 53.6687 68.4118C53.9114 68.5893 54.154 68.7446 54.3746 68.9221C54.529 69.033 54.6614 69.1439 54.7937 69.2548C54.9923 69.4101 55.1908 69.5654 55.3894 69.7207C55.4996 69.8094 55.6099 69.8981 55.7202 69.9869C56.1614 70.3418 56.5806 70.6968 57.0217 71.0517C57.6615 71.6063 58.3012 72.1609 58.963 72.7155C59.2056 72.9374 59.4703 73.137 59.713 73.3589C61.1469 74.5568 62.6028 75.7104 64.1911 76.6421C64.8749 77.0414 65.5588 77.4185 66.2867 77.7291C66.3529 77.7513 66.397 77.7735 66.4632 77.7956C69.4191 79.0379 72.3751 79.3485 75.2428 78.9048C75.7281 78.8383 76.2135 78.7274 76.6988 78.6165C77.2061 78.5055 77.6914 78.3502 78.1767 78.195C78.9268 77.9287 79.6768 77.6182 80.4268 77.2632C81.3974 76.7974 82.3239 76.2649 83.2284 75.666C85.0813 74.4237 86.824 73.0483 88.5006 71.5841C88.7653 71.3623 89.03 71.1183 89.2947 70.8964C89.2726 70.7855 89.2506 70.6968 89.2285 70.6302Z" fill="#BD6211"/>
<path d="M89.2281 70.6286C87.1546 70.4955 85.103 70.3845 83.0294 70.2736C84.5074 68.3658 85.9854 66.4802 87.4634 64.5723C87.3531 64.173 87.2207 63.7959 87.1104 63.3966C85.3457 65.6594 83.5589 67.9221 81.8162 70.2071C81.7941 70.2071 81.7941 70.2071 81.7721 70.2071C79.4779 70.0962 77.1616 69.9852 74.8454 69.8743C73.8748 69.8299 72.9042 69.7856 71.9556 69.7412C72.11 69.5416 72.2644 69.3419 72.4188 69.1201C74.4042 66.5689 76.4337 64.0399 78.4631 61.511C81.1764 61.5553 83.8898 61.6219 86.581 61.6884C86.4707 61.3557 86.3825 61.0229 86.2722 60.6902C85.2354 60.668 84.2206 60.6458 83.1839 60.6236C81.8823 60.6014 80.5588 60.5792 79.2573 60.5571C79.4558 60.2908 79.6764 60.0246 79.8749 59.7806C79.3455 59.9581 78.794 60.1134 78.2425 60.2243C78.1543 60.3352 78.0881 60.424 77.9999 60.5349C77.4925 60.5349 77.0072 60.5127 76.4998 60.5127C75.2866 60.4905 74.0954 60.4683 72.8821 60.4461C72.1321 60.4239 71.4041 60.424 70.6541 60.4018C70.7423 60.2908 70.8526 60.1799 70.9409 60.0468C70.5879 59.9581 70.257 59.8472 69.9041 59.7362C69.7276 59.9581 69.5511 60.1577 69.3747 60.3796C67.0805 60.3352 64.8083 60.2908 62.5362 60.2465C63.3524 59.3813 64.1686 58.5161 65.0069 57.651C64.676 57.4957 64.3672 57.3626 64.0583 57.2073C63.3745 57.9172 62.7127 58.627 62.0289 59.3369C61.7641 59.6253 61.4774 59.9137 61.2127 60.2021C59.2714 60.1577 57.3523 60.1134 55.411 60.0468C54.5948 60.0246 53.8007 59.9803 52.9845 59.9581C52.9624 59.9803 52.9183 60.0025 52.8962 60.0025C52.3448 60.313 51.7933 60.5792 51.2197 60.8676C54.2419 61.0007 57.264 61.0895 60.2862 61.156C58.014 63.5297 55.7419 65.8812 53.4698 68.2549C53.536 68.3214 53.6242 68.3658 53.7124 68.4102C53.8227 68.4989 53.9551 68.5876 54.0654 68.6764C54.1978 68.7651 54.3301 68.876 54.4625 68.9648C54.7934 69.2088 55.1022 69.4528 55.411 69.6968C55.4331 69.719 55.4551 69.7412 55.4772 69.7634C55.4993 69.7856 55.5213 69.8078 55.5434 69.83C57.3964 69.9631 59.2494 70.074 61.1024 70.1849C60.3965 71.0279 59.6685 71.8709 58.9626 72.7361C59.2052 72.9579 59.47 73.1575 59.7126 73.3794C60.595 72.3367 61.4553 71.3163 62.3377 70.2736C63.2642 70.318 64.1907 70.3845 65.1172 70.4289C65.3598 70.4511 65.5804 70.4511 65.8231 70.4733C67.2128 70.5398 68.6026 70.6064 69.9703 70.6729C69.882 70.7839 69.7938 70.8948 69.7276 71.0057C68.2717 72.8913 66.8158 74.7992 65.404 76.7513C65.0069 76.7292 64.5878 76.707 64.1907 76.707C64.8745 77.1063 65.5584 77.4834 66.2863 77.794C69.4629 77.9271 72.6394 78.0602 75.8381 78.1489C75.6395 78.4151 75.441 78.6813 75.2645 78.9697C75.7498 78.9032 76.2351 78.7923 76.7204 78.6813C76.8307 78.5261 76.941 78.3708 77.0513 78.2155C77.4263 78.2155 77.8014 78.2377 78.1984 78.2599C78.9484 77.9936 79.6985 77.6831 80.4485 77.3281C80.0073 77.3281 79.5661 77.3059 79.1249 77.2838C78.6837 77.2616 78.2425 77.2616 77.8014 77.2394C79.2793 75.2428 80.7794 73.2685 82.3015 71.2941C84.3751 71.405 86.4487 71.5159 88.5222 71.649C88.787 71.4272 89.0517 71.1832 89.3164 70.9613C89.2723 70.7839 89.2502 70.6951 89.2281 70.6286ZM62.073 69.0535C62.0289 69.1201 61.9627 69.1644 61.9186 69.231C59.3817 69.0979 56.8669 68.9426 54.3301 68.7651C56.7346 66.2805 59.117 63.7959 61.4774 61.3113C61.4994 61.2669 61.5435 61.2448 61.5877 61.2004C63.5068 61.2448 65.426 61.2891 67.3672 61.3335C67.7643 61.3335 68.1614 61.3557 68.5584 61.3557C66.3966 63.9068 64.2569 66.4802 62.073 69.0535ZM63.1759 69.2975C63.6171 68.7873 64.0363 68.2771 64.4775 67.7668C66.2643 65.6372 68.0511 63.4853 69.8379 61.3557C72.3085 61.4 74.7571 61.4444 77.2278 61.4888C75.0439 64.2174 72.8821 66.9238 70.7423 69.6747C68.2276 69.5637 65.6907 69.4306 63.1759 69.2975ZM76.5881 77.1285C73.2792 77.0176 69.9482 76.9066 66.6393 76.7513C68.1173 74.7548 69.6173 72.7804 71.1394 70.8282C71.1835 70.7839 71.2056 70.7395 71.2497 70.6951C71.4262 70.6951 71.6027 70.7173 71.7791 70.7173C74.8895 70.8504 77.9999 71.0057 81.1103 71.161C79.5661 73.1354 78.044 75.1097 76.5881 77.1285Z" fill="#DEAD7C"/>
<path d="M61.9402 69.231C59.4034 69.0979 56.8886 68.9426 54.3518 68.7651C56.7562 66.2805 59.1387 63.7959 61.499 61.3113C61.6975 60.6458 61.852 60.0024 62.0064 59.3369C61.7417 59.6253 61.4549 59.9137 61.1902 60.2021C59.249 60.1577 57.3298 60.1134 55.3886 60.0468C54.5724 60.0246 53.7782 59.9803 52.962 59.9581C52.94 59.9803 52.8958 60.0024 52.8738 60.0024C52.3223 60.313 51.7708 60.5792 51.1973 60.8676C54.2194 61.0007 57.2415 61.0895 60.2637 61.156C57.9916 63.5297 55.7194 65.8812 53.4473 68.2549C53.5135 68.3214 53.6017 68.3658 53.69 68.4102C53.8003 68.4989 53.9326 68.5876 54.0429 68.6764C54.1753 68.7651 54.3076 68.876 54.44 68.9648C54.7709 69.2088 55.0797 69.4528 55.3886 69.6968C55.4106 69.719 55.4327 69.7412 55.4547 69.7634C55.4768 69.7856 55.4988 69.8078 55.5209 69.83C57.3739 69.9631 59.2269 70.074 61.0799 70.1849C60.374 71.0279 59.646 71.8709 58.9401 72.7361C59.1828 72.9579 59.4475 73.1576 59.6901 73.3794C60.5725 72.3367 61.4328 71.3163 62.3152 70.2736C63.2417 70.318 64.1682 70.3845 65.0947 70.4289C64.0358 70.0962 63.0211 69.6303 62.0284 69.0757C62.0284 69.1201 61.9843 69.1644 61.9402 69.231Z" fill="#D18546"/>
<path d="M87.4627 64.5501C85.9847 66.458 84.5067 68.3436 83.0288 70.2514C85.1024 70.3623 87.1539 70.4733 89.2275 70.6064C89.2495 70.6951 89.2716 70.7838 89.2936 70.8504C89.0289 71.0722 88.7642 71.3162 88.4995 71.5381C86.4259 71.405 84.3523 71.2941 82.2787 71.1831C80.7566 73.1575 79.2566 75.1319 77.7786 77.1285C78.2198 77.1506 78.661 77.1506 79.1022 77.1728C79.5434 77.195 79.9846 77.195 80.4258 77.2172C79.6978 77.5721 78.9478 77.8827 78.1757 78.1489C77.8007 78.1267 77.4257 78.1267 77.0286 78.1045C76.9183 78.2598 76.808 78.4151 76.6977 78.5704C76.2124 78.7035 75.7271 78.7923 75.2418 78.8588C75.4403 78.5926 75.6389 78.3264 75.8153 78.038C72.6388 77.9271 69.4402 77.8162 66.2636 77.6831C65.5357 77.3725 64.8518 76.9954 64.168 76.596C64.565 76.6182 64.9842 76.6404 65.3812 76.6404C66.793 74.7104 68.249 72.8026 69.7049 70.8948C70.1681 70.8726 70.6314 70.8282 71.0726 70.7395C69.5505 72.6917 68.0504 74.666 66.5724 76.6626C69.8814 76.8179 73.2123 76.9288 76.5212 77.0397C77.9992 75.0432 79.4993 73.0466 81.0214 71.0722C77.911 70.9169 74.8006 70.7617 71.6902 70.6285C72.7491 70.4289 73.7859 70.1405 74.8006 69.7634C77.1168 69.8743 79.411 69.9852 81.7273 70.0961C81.7493 70.0961 81.7493 70.0961 81.7714 70.0961C83.5361 67.8112 85.3009 65.5484 87.0656 63.2856C87.2421 63.7737 87.3524 64.173 87.4627 64.5501Z" fill="#D18546"/>
<path d="M91.6974 73.0022C91.7416 72.6695 92.0283 72.4033 92.3151 72.2258C92.6019 72.0483 92.9107 71.8709 93.1093 71.6046C93.2857 71.3163 93.2416 70.8504 92.9328 70.7173C92.7784 70.6507 92.6019 70.6951 92.4254 70.7395C91.9622 70.8504 91.4769 70.9613 90.9916 71.0722C89.8886 71.3384 88.7856 71.5825 87.6606 71.8487C87.4179 71.9152 87.1532 71.9596 86.9106 72.004C86.8664 74.3555 87.1753 76.7291 87.2194 79.0585C87.2635 81.1216 87.4841 83.1181 87.815 85.0925C88.8297 84.9372 89.8445 84.9372 90.8813 84.7819C91.1239 84.7597 91.3445 84.7154 91.5872 84.671C91.8739 84.6045 92.1828 84.5157 92.3592 84.2939C92.5357 84.072 92.5357 83.6727 92.2931 83.5396C92.0945 83.4287 91.8298 83.4953 91.6974 83.3178C91.5651 83.1181 91.7416 82.8741 91.9401 82.741C92.1386 82.6079 92.3813 82.497 92.4254 82.253C92.5357 81.7871 91.7195 81.6096 91.5872 81.1438C91.3886 80.4561 92.7122 80.0567 92.5137 79.369C92.4034 79.0585 92.0283 78.9475 91.8077 78.6813C91.543 78.3708 91.5872 77.9049 91.7857 77.55C91.9842 77.195 92.3151 76.951 92.6239 76.707C92.6901 76.6404 92.7784 76.5739 92.8225 76.4851C92.8887 76.2855 92.7122 76.108 92.5578 75.9971C92.3813 75.8862 92.1828 75.8196 92.0725 75.6421C91.8077 75.2428 92.271 74.777 92.6681 74.5329C93.0651 74.2889 93.5063 73.823 93.2637 73.4237C92.9107 72.98 92.1166 73.335 91.6974 73.0022Z" fill="#D10505"/>
<path d="M90.5062 74.1334C90.6386 73.1129 90.7489 72.0703 90.9915 71.072C89.8886 71.3382 88.7856 71.5823 87.6606 71.8485C87.4179 71.915 87.1532 71.9594 86.9106 72.0037C86.8664 74.3552 87.1753 76.7289 87.2194 79.0583C87.2635 81.1214 87.4841 83.1179 87.815 85.0923C88.8297 84.937 89.8444 84.937 90.8812 84.7817C90.3739 82.9405 90.1092 81.0326 90.1092 79.1026C90.1092 77.461 90.3077 75.7972 90.5062 74.1334Z" fill="#AD0000"/>
<path d="M89.5802 70.9393C89.5582 72.1594 89.514 73.3796 89.4479 74.5775C89.4258 74.9324 89.4258 75.2874 89.4037 75.6423C89.3817 76.0638 89.3596 76.4853 89.3596 76.8846C89.3596 77.0621 89.3376 77.2396 89.3376 77.417C89.3155 77.8163 89.2934 78.2378 89.2714 78.6372C89.1611 80.7446 89.0287 82.8521 88.8743 84.9374C88.8743 85.0262 88.8743 85.1149 88.8523 85.2036C88.5214 85.3367 88.2125 85.4698 87.8816 85.5808C85.8081 86.3794 83.7124 87.0893 81.5506 87.5995C80.4917 87.8657 79.4329 88.0432 78.374 88.1541C77.5578 88.2428 76.7416 88.2872 75.9475 88.265C75.4181 88.2428 74.9107 88.2206 74.4033 88.1541C73.918 88.1097 73.4327 88.021 72.9474 87.9323C70.1017 87.3777 67.4105 86.0688 65.0722 83.8948C65.0281 83.8504 64.984 83.806 64.9398 83.7617C64.3663 83.2071 63.8369 82.6303 63.3295 82.0091C62.1603 80.5894 61.1677 78.9921 60.2191 77.3949C60.0647 77.1065 59.8882 76.8181 59.7338 76.5297C59.3147 75.7976 58.8956 75.0434 58.4764 74.3113C58.1676 73.7567 57.8367 73.2021 57.5058 72.6697C57.0426 71.9154 56.5793 71.1833 56.0499 70.4513C55.6087 69.8301 55.1455 69.2311 54.6601 68.6765C54.0645 67.9667 53.4028 67.3233 52.6969 66.7244C51.8586 66.0145 47.932 62.2432 46.7188 63.1749C47.9982 62.1766 49.2556 61.134 50.6012 60.2688C50.9542 60.047 51.3071 59.8473 51.6601 59.6477C52.2557 59.3371 52.8954 59.0487 53.5572 58.849C57.5499 57.5845 62.0721 58.1613 65.6457 60.3575C66.6825 61.0009 67.6531 61.7551 68.5576 62.5981C68.9547 62.9531 69.3517 63.3302 69.7267 63.7073C69.9694 63.9514 70.2341 64.1954 70.4768 64.4394C71.7562 65.7039 72.9915 66.9906 74.4033 68.0776C74.6901 68.2994 74.9769 68.5213 75.2637 68.7209C75.4622 68.854 75.6607 68.9871 75.8593 69.1202C76.2122 69.3421 76.5652 69.5639 76.9402 69.7414C77.999 70.296 79.1461 70.7397 80.3153 71.028C80.8226 71.1612 81.33 71.2721 81.8594 71.3386C81.9256 71.3386 81.9918 71.3608 82.058 71.3608C82.6094 71.4274 83.183 71.4717 83.7345 71.4939C85.7198 71.5826 87.639 71.3164 89.5802 70.9393Z" fill="#F7931E"/>
<path d="M86.7783 77.729C83.8664 78.572 80.8664 79.0822 77.8222 79.2597C74.5794 79.4593 71.2043 79.2375 68.2925 77.7512C65.5571 76.3536 63.5276 74.0243 61.807 71.4066C64.5203 68.8776 66.7704 65.8606 68.5572 62.5995C67.6528 61.7787 66.6821 61.0023 65.6453 60.3589C62.0717 58.1627 57.5495 57.6081 53.5568 58.8504C50.9758 59.6491 48.8802 61.4903 46.6963 63.1763C47.9096 62.2446 51.8141 66.0159 52.6744 66.7257C53.4685 67.3913 54.1744 68.1233 54.8142 68.8998C54.9686 69.0772 55.123 69.2547 55.2554 69.4322C55.3877 69.5875 55.498 69.7428 55.6304 69.9202C55.7407 70.0755 55.873 70.2308 55.9833 70.3861C56.0495 70.4748 56.1157 70.5857 56.1818 70.6745C56.3583 70.9185 56.5127 71.1625 56.6892 71.4066C56.7775 71.5618 56.8877 71.7171 56.976 71.8502C57.1083 72.0499 57.2407 72.2717 57.3731 72.4714C57.4392 72.5823 57.5275 72.7154 57.5936 72.8263C57.8804 73.3144 58.1672 73.8024 58.454 74.2683C58.8731 75.0004 59.2922 75.7546 59.7114 76.4867C59.8658 76.7751 60.0422 77.0635 60.1967 77.3519C61.1452 78.9713 62.1158 80.5464 63.307 81.9661C63.8144 82.5873 64.3438 83.1641 64.9174 83.7187C64.9615 83.763 65.0056 83.8074 65.0497 83.8518C67.388 86.0258 70.0793 87.3346 72.925 87.8892C73.4103 87.978 73.8956 88.0667 74.3809 88.1111C74.8882 88.1776 75.3956 88.1998 75.925 88.222C76.7192 88.2442 77.5354 88.1998 78.3516 88.1111C79.4104 88.0224 80.4693 87.8227 81.5281 87.5565C83.69 87.0241 85.7856 86.3364 87.8592 85.5377C88.1901 85.4046 88.4989 85.2715 88.8298 85.1606C88.8298 85.0719 88.8519 84.9831 88.8519 84.8944C89.0063 82.7869 89.1386 80.6795 89.2489 78.5942C89.271 78.1949 89.2931 77.7734 89.3151 77.374C89.3151 77.1966 89.3372 77.0191 89.3372 76.8416C88.4989 77.1966 87.6386 77.485 86.7783 77.729Z" fill="#DB7214"/>
<path d="M81.8364 72.6939C84.3732 73.67 86.888 74.646 89.4027 75.6443C89.4248 75.2894 89.4248 74.9344 89.4469 74.5795C88.4762 74.2024 87.5277 73.8252 86.5571 73.4481C85.3438 72.9601 84.1085 72.4942 82.8952 72.0283C83.182 71.8509 83.4688 71.6734 83.7555 71.4959C83.182 71.4737 82.6305 71.4294 82.079 71.3628C81.9687 71.4294 81.8584 71.4959 81.7481 71.5625C81.2849 71.385 80.8216 71.2075 80.3363 71.0301C79.2113 70.6086 78.0863 70.1649 76.9612 69.7434C76.2774 69.4772 75.5715 69.211 74.8876 68.9448C75.02 68.8782 75.1523 68.7895 75.2847 68.7229C74.9979 68.5233 74.7112 68.3014 74.4244 68.0796C74.1817 68.2127 73.9391 68.368 73.6964 68.5011C71.5567 67.6803 69.4389 66.8595 67.2992 66.0165C68.358 65.4841 69.4169 64.9517 70.4978 64.4192C70.2331 64.1752 69.9904 63.9312 69.7478 63.6872C68.8654 64.1309 68.0051 64.5523 67.1227 64.996C66.7698 65.1735 66.4168 65.351 66.0639 65.5284C64.255 64.8186 62.4682 64.1087 60.6593 63.3988C57.6371 62.1787 54.6371 60.9585 51.659 59.6719C51.6149 59.6941 51.5708 59.7162 51.5267 59.7384C51.3943 59.805 51.2399 59.8937 51.1076 59.9825C50.9311 60.0934 50.7546 60.1821 50.5781 60.293C55.2988 62.334 60.0637 64.264 64.8285 66.1274C61.8946 67.5915 58.9607 69.0113 56.0268 70.4533C56.0709 70.542 56.1371 70.6086 56.1812 70.6973C56.2695 70.8082 56.3356 70.9413 56.4239 71.0522C56.5121 71.1854 56.6224 71.3406 56.7107 71.4737C56.9312 71.8065 57.1518 72.1614 57.3504 72.4942C57.3724 72.5164 57.3945 72.5386 57.3945 72.5829C57.4166 72.6051 57.4386 72.6273 57.4386 72.6717C59.1372 73.4259 60.8358 74.1802 62.5343 74.9123C61.5858 75.4669 60.6152 76.0215 59.6666 76.5761C59.821 76.8644 59.9975 77.1528 60.1519 77.4412C61.3211 76.7757 62.4902 76.088 63.6814 75.4225C64.5418 75.7996 65.38 76.1546 66.2403 76.5095C66.4609 76.5982 66.6815 76.687 66.8801 76.7757C68.1595 77.3081 69.4389 77.8405 70.7184 78.3951C70.6081 78.4617 70.4978 78.5504 70.3654 78.617C68.358 79.9037 66.3506 81.1903 64.3653 82.5214C63.9903 82.3661 63.6153 82.2108 63.2402 82.0555C63.7476 82.6766 64.277 83.2534 64.8506 83.808C67.7845 85.0281 70.7405 86.2261 73.6964 87.424C73.4317 87.6015 73.1449 87.8011 72.8802 87.9786C73.3655 88.0673 73.8508 88.1561 74.3361 88.2004C74.4906 88.0895 74.645 87.9786 74.8215 87.8677C75.1744 88.0008 75.5274 88.1561 75.8803 88.2892C76.6744 88.3114 77.4906 88.267 78.3068 88.1783C77.8877 88.023 77.4686 87.8455 77.0715 87.6902C76.6524 87.5349 76.2553 87.3575 75.8362 87.2022C77.9098 85.8268 79.9834 84.4735 82.079 83.1425C83.9982 83.9633 85.8953 84.7841 87.8145 85.6049C88.1454 85.4718 88.4542 85.3387 88.7851 85.2278C88.7851 85.1391 88.8071 85.0503 88.8071 84.9616C86.91 84.1186 85.0129 83.2978 83.0937 82.4992C85.1232 81.2125 87.1747 79.948 89.2042 78.6613C89.2263 78.262 89.2483 77.8405 89.2704 77.4412C86.8438 78.9719 84.3952 80.4804 81.9687 82.0333C81.9687 82.0333 81.9467 82.0333 81.9467 82.0111C79.8289 81.1016 77.6892 80.2142 75.5494 79.3269C74.667 78.9497 73.7626 78.5726 72.8802 78.2177C73.1008 78.0846 73.3214 77.9515 73.542 77.7962C76.3215 76.0658 79.0789 74.3798 81.8364 72.6939ZM63.6814 74.2911C61.3431 73.2928 59.0269 72.2724 56.7107 71.2519C59.799 69.7434 62.8873 68.2127 65.9756 66.7042C66.0197 66.682 66.0639 66.6598 66.108 66.6376C67.8948 67.3475 69.7037 68.0352 71.4905 68.7229C71.8655 68.856 72.2405 69.0113 72.5934 69.1444C69.6816 70.8304 66.7918 72.4942 63.88 74.1802C63.8138 74.2024 63.7476 74.2467 63.6814 74.2911ZM81.0202 82.6545C78.9245 83.9855 76.8289 85.3387 74.7553 86.7141C71.667 85.4718 68.6007 84.2295 65.5344 82.9429C67.586 81.5674 69.6816 80.2364 71.7773 78.9054C71.8214 78.8832 71.8655 78.8388 71.9096 78.8166C72.064 78.8832 72.2405 78.9497 72.3949 79.0163C75.2847 80.2364 78.1524 81.4565 81.0202 82.6545ZM71.8214 77.7296C69.4831 76.7535 67.1448 75.7774 64.8285 74.7792C65.4021 74.4464 65.9977 74.1136 66.5712 73.7809C68.9757 72.3833 71.3802 70.9857 73.7847 69.5881C76.0788 70.4755 78.3951 71.3628 80.6893 72.2502C77.7112 74.0693 74.7553 75.8662 71.8214 77.7296Z" fill="#FCC58D"/>
<path d="M65.9768 66.68C62.8885 68.2107 59.8002 69.7192 56.7118 71.2277C59.0281 72.2704 61.3443 73.2686 63.6826 74.2669C63.7488 74.2225 63.815 74.2004 63.8811 74.156C64.6091 74.999 65.4253 75.7976 66.3077 76.4631C65.4474 76.1082 64.6091 75.7311 63.7488 75.3761C62.5796 76.0416 61.4105 76.7293 60.2193 77.3949C60.0649 77.1065 59.8884 76.8181 59.734 76.5297C60.6825 75.9751 61.6531 75.4205 62.6017 74.8659C60.9031 74.1338 59.1825 73.4017 57.506 72.6253C57.4839 72.6031 57.4619 72.5587 57.4619 72.5366C57.4398 72.5144 57.4177 72.4922 57.4177 72.4478C57.2192 72.0929 56.9986 71.7601 56.778 71.4274C56.6898 71.2943 56.6015 71.139 56.4912 71.0059C56.403 70.8728 56.3368 70.7618 56.2486 70.6509C56.1824 70.5622 56.1383 70.4956 56.0942 70.4069C59.0281 68.9649 61.962 67.523 64.8959 66.081C60.109 64.1954 55.3442 62.2654 50.6455 60.2466C50.822 60.1357 50.9985 60.0248 51.1749 59.9361C51.3073 59.8473 51.4396 59.7808 51.5941 59.692C51.6382 59.6699 51.6823 59.6477 51.7264 59.6255C54.7044 60.9122 57.7045 62.1545 60.7267 63.3524C62.5355 64.0845 64.3223 64.7722 66.1312 65.4821C66.4842 65.3046 66.8371 65.1271 67.1901 64.9496C66.7489 65.5708 66.3739 66.1254 65.9768 66.68Z" fill="#EF9850"/>
<path d="M89.2706 78.6369C87.2411 79.9236 85.1896 81.1881 83.1601 82.4747C85.0572 83.2955 86.9764 84.1163 88.8735 84.9372C88.8735 85.0259 88.8735 85.1146 88.8515 85.2034C88.5206 85.3365 88.2117 85.4696 87.8808 85.5805C85.9837 84.7597 84.0646 83.9389 82.1454 83.1181C80.0497 84.4491 77.9541 85.8023 75.9026 87.1777C76.3217 87.333 76.7188 87.5105 77.1379 87.6658C77.557 87.8211 77.9762 87.9985 78.3732 88.1538C77.557 88.2426 76.7408 88.2869 75.9467 88.2648C75.5937 88.1095 75.2408 87.9764 74.8878 87.8433C74.7334 87.9542 74.579 88.0651 74.4025 88.176C73.9172 88.1316 73.4319 88.0429 72.9466 87.9542C73.2113 87.7545 73.4981 87.577 73.7628 87.3996C70.8068 86.2016 67.8509 85.0037 64.917 83.7836C64.3434 83.229 63.814 82.6522 63.3066 82.0311C63.6817 82.1863 64.0567 82.3416 64.4317 82.4969C66.417 81.1659 68.4244 79.857 70.4318 78.5925C70.873 78.7256 71.3142 78.8366 71.7775 78.9253C69.6818 80.2563 67.6082 81.5874 65.5346 82.9628C68.6009 84.2273 71.6892 85.4918 74.7555 86.7341C76.8291 85.3586 78.9027 84.0054 81.0204 82.6744C78.1526 81.4543 75.2628 80.2563 72.3951 79.0584C73.454 79.2359 74.5349 79.3024 75.6158 79.3246C77.7556 80.212 79.8953 81.1215 82.013 82.0089C82.013 82.0089 82.0351 82.0089 82.0351 82.0311C84.4616 80.5004 86.8882 78.9697 89.3368 77.439C89.3147 77.8161 89.2926 78.2376 89.2706 78.6369Z" fill="#EF9850"/>
<path d="M71.6012 100.044C71.2041 101.974 70.5423 103.838 69.5938 105.635C68.8217 107.099 67.829 108.541 66.6157 109.894C65.5569 111.07 64.4098 112.112 63.1745 113.022C56.314 118.169 46.8946 119.833 38.6003 120.054C30.4383 120.276 21.8792 119.1 14.3349 115.862C9.6583 113.843 6.45968 110.759 4.36403 107.077C3.85667 106.189 3.41548 105.235 3.04047 104.282C3.04047 104.259 3.01841 104.259 3.01841 104.237C2.4228 102.729 1.98161 101.154 1.65072 99.5342C1.05512 96.5393 0.878643 93.367 0.988941 90.1504C1.011 89.8176 1.011 89.4848 1.03306 89.1521C1.25365 85.159 1.89338 81.1659 2.73164 77.3946C3.01841 76.0635 3.3493 74.7991 3.68019 73.5346C3.92284 72.625 4.1655 71.7155 4.40815 70.8059C4.65081 69.8964 4.89346 68.9869 5.15817 68.0773C5.37877 67.2787 5.59936 66.4801 5.81996 65.6814C5.84202 65.6149 5.86407 65.5262 5.88613 65.4596C6.19497 64.3948 6.48174 63.3299 6.81263 62.2651C6.83469 62.1986 6.85675 62.132 6.87881 62.0655C7.03322 61.5109 7.2097 60.9563 7.36412 60.4017C7.40824 60.2242 7.47441 60.0467 7.51853 59.8471C7.78325 58.9375 8.07002 58.028 8.35679 57.1184C8.64356 56.2089 8.93034 55.3215 9.21711 54.412C9.50388 53.5025 9.81271 52.6151 10.0995 51.7055C11.5113 47.4906 13.0554 43.3422 14.7761 39.2825C15.1732 38.3286 15.6143 37.3525 16.0776 36.3986C17.0041 34.513 18.0409 32.6495 19.2541 30.8748C19.4086 30.6308 19.585 30.4089 19.7615 30.1649C23.7763 24.508 29.2691 20.0934 36.5487 19.8937C37.3649 19.8716 38.1811 19.8937 38.9532 19.9825C47.3579 20.8698 53.1374 27.5916 56.7552 35.0898C62.0274 45.9821 63.3509 58.2055 66.704 69.7189C69.4394 79.1249 73.6748 90.2391 71.6012 100.044Z" fill="#1A1A1A"/>
<path d="M62.5127 99.4233C61.8289 101.841 60.6597 104.126 58.8508 106.189C57.5273 107.698 55.961 108.94 54.2845 109.983C46.1667 114.974 36.1517 115.973 26.8647 114.619C17.5115 113.244 8.40092 110.183 4.89347 101.198C4.84935 101.065 4.80523 100.954 4.76111 100.821C2.66546 95.1862 2.55517 89.263 3.37137 83.4065C3.43754 82.9184 3.50372 82.4304 3.59196 81.9423C4.07727 78.9475 4.78317 75.9526 5.57731 73.0244C5.73173 72.4254 5.9082 71.8264 6.06262 71.2275C6.41557 69.9408 6.79058 68.6541 7.14353 67.3896C7.18765 67.2122 7.25383 67.0347 7.29794 66.8572C7.89355 64.7719 8.46709 62.7088 9.0627 60.6235C9.39359 59.4478 9.72448 58.2942 10.0554 57.1184C10.9377 54.057 11.8863 51.0178 12.9452 48.0008C14.8643 42.5657 16.9379 34.6682 22.4748 31.9174C26.7323 29.8099 31.056 32.8048 33.284 36.443C33.3281 36.3764 33.3942 36.3099 33.4604 36.2655C35.0487 34.5795 36.9899 33.2707 39.0415 32.5386C42.3945 31.3185 46.0784 31.629 49.1226 34.2911C52.6521 37.3969 54.3066 42.3439 53.2257 46.8916C52.6742 49.1988 54.5272 52.5485 55.1669 54.7669C55.7184 56.6969 56.2478 58.6269 56.7772 60.557C57.1743 62.0211 57.5714 63.4852 57.9464 64.9494C58.0567 65.3709 58.167 65.7702 58.2552 66.1917C58.7185 67.9664 59.1597 69.7411 59.5788 71.5158C60.7038 76.1745 61.6965 80.8775 62.5568 85.6027C62.7995 86.9337 62.998 88.2869 63.1524 89.618C63.2186 90.1504 63.2407 90.705 63.2848 91.2596C63.4171 94.0548 63.2407 96.8056 62.5127 99.4233Z" fill="white"/>
<path d="M59.5566 71.5602C59.1375 69.7854 58.6963 68.0107 58.2331 66.236C58.1228 65.8145 58.0345 65.4152 57.9242 64.9937C57.8581 64.7719 57.8139 64.5722 57.7478 64.3504C50.3579 65.992 42.615 65.9476 34.9824 64.794C26.2469 63.5074 18.107 60.4904 9.9891 57.2737C9.65821 58.4051 9.34937 59.5143 9.01848 60.6456C8.42288 62.7309 7.84933 64.794 7.25373 66.8793C7.20961 67.0568 7.14343 67.2343 7.09931 67.4118C6.74636 68.6762 6.37135 69.9629 6.0184 71.2496C5.86398 71.8486 5.68751 72.4475 5.53309 73.0465C4.76101 75.9748 4.05511 78.9474 3.54774 81.9644C3.45951 82.4525 3.39333 82.9405 3.32715 83.4286C11.423 84.6487 19.9158 83.2289 27.1293 79.3024C27.4822 79.1027 27.8572 78.9031 28.2543 78.8365C28.5852 78.77 28.9381 78.8143 29.2911 78.8587C32.6 79.2136 35.953 79.1915 39.284 79.1693C39.8796 80.2341 40.8282 81.1215 41.8429 81.787C48.2402 85.9354 55.5639 88.6196 63.1082 89.6845C62.9759 88.3312 62.7773 87.0002 62.5126 85.6692C61.6744 80.9218 60.6817 76.2188 59.5566 71.5602Z" fill="#F2F2F2"/>
<path d="M38.9314 44.2518C40.4756 44.274 40.4094 47.5794 38.8873 47.535C37.3431 47.535 37.3872 44.2296 38.9314 44.2518Z" fill="#1A1A1A"/>
<path d="M27.4607 43.4088C29.0048 43.431 28.9387 46.7364 27.4166 46.692C25.8724 46.692 25.9165 43.3866 27.4607 43.4088Z" fill="#1A1A1A"/>
<path d="M4.36426 107.054C6.4599 110.759 9.65852 113.821 14.3351 115.839C21.8794 119.1 30.4385 120.276 38.6005 120.054C46.9169 119.832 56.3363 118.169 63.1747 113.022C64.41 112.09 65.5571 111.048 66.616 109.872C76.8736 98.4249 70.4323 82.4746 66.7263 69.7189C63.3732 58.2054 62.0497 45.982 56.7775 35.0897C53.1377 27.5693 47.3581 20.8476 38.9755 19.9602C44.9977 22.711 49.1449 27.7911 52.3656 33.4702C55.851 39.6374 58.476 46.3148 60.4614 53.1031C62.3364 59.5586 63.3512 66.1916 64.9615 72.6915C66.4836 78.8587 68.7999 84.9814 69.241 91.3482C69.6602 97.3823 67.9395 102.95 63.5497 107.188C59.8658 110.737 55.1451 113.089 50.3582 114.708C38.1814 118.856 25.5634 119.1 13.8939 113.199C10.4527 111.536 7.29816 109.45 4.36426 107.054Z" fill="black"/>
<path d="M62.5566 85.6472C62.4905 85.3366 62.4463 85.026 62.3802 84.7154C61.6743 81.0107 60.9022 77.306 60.0419 73.6234C59.3801 70.7395 58.6742 67.8778 57.9241 65.0161C57.0418 61.5997 56.1153 58.2056 55.1447 54.8336C54.5049 52.593 52.674 49.2654 53.2034 46.9583C54.2623 42.4106 52.6078 37.4635 49.1004 34.3578C46.4753 32.0506 43.409 31.5182 40.4751 32.1616C41.8649 32.0285 43.2326 32.2947 44.49 32.8493C45.4826 33.182 46.3209 33.7366 46.9827 34.4465C48.1959 35.5113 49.1886 36.8646 49.8283 38.3953C51.2843 41.8781 50.799 45.4941 50.0269 49.0658C50.3578 50.7961 50.7548 52.5265 51.174 54.2346C52.2328 58.5383 53.424 62.7755 54.5711 66.9904C55.4756 69.0314 55.8506 71.3829 56.3138 73.4903C56.9977 76.6626 57.88 79.9237 58.233 83.1847C58.8065 86.712 59.1815 90.2836 59.2477 93.944C59.4021 100.732 56.8432 105.457 50.4681 108.319C48.9018 109.029 47.1591 109.584 45.5268 110.116C31.9823 114.464 14.0921 112.179 4.7168 100.865C4.76092 100.998 4.80503 101.132 4.84915 101.243C8.33454 110.227 17.4671 113.288 26.7983 114.664C36.0633 116.017 46.1003 115.041 54.2182 110.027C55.9167 108.985 57.4609 107.72 58.7845 106.234C63.9464 100.422 63.8802 92.8126 62.5566 85.6472Z" fill="#F7F7F7"/>
<path d="M39.8355 54.0348C39.8355 53.6577 39.7694 53.2584 39.637 52.9035C38.7987 50.5519 36.1737 48.0673 33.6368 47.8899C31.5632 47.7346 29.6661 48.2004 27.7249 48.866C26.0263 49.4427 24.1733 50.3301 23.0483 51.7942C21.9674 53.214 21.2394 55.0331 23.1586 56.1201C24.416 56.83 26.2249 56.7191 27.6367 56.83C29.2249 56.9409 30.8132 56.9409 32.4015 56.9853C34.056 57.0297 35.7325 57.0519 37.3428 56.6969C38.0487 56.5416 38.7987 56.2754 39.2841 55.743C39.6811 55.255 39.8355 54.656 39.8355 54.0348Z" fill="#F2F2F2"/>
<path d="M47.1157 55.0212C48.9472 53.5382 49.2363 50.8428 47.7616 49.001C46.2868 47.1592 43.6066 46.8684 41.7751 48.3515C39.9437 49.8346 39.6545 52.5299 41.1293 54.3717C42.604 56.2135 45.2843 56.5043 47.1157 55.0212Z" fill="#F2AAAA"/>
<path d="M43.2346 48.999C43.1905 49.4427 43.8082 49.8863 44.6244 49.9751C45.4406 50.0638 46.1465 49.7754 46.1906 49.3317C46.2347 48.8881 45.6171 48.4444 44.8009 48.3556C43.9847 48.2669 43.2788 48.5553 43.2346 48.999Z" fill="#F9C5C5"/>
<path d="M23.4966 52.042C25.328 50.5589 25.6172 47.8636 24.1424 46.0218C22.6677 44.18 19.9874 43.8892 18.156 45.3723C16.3245 46.8553 16.0354 49.5507 17.5101 51.3925C18.9849 53.2343 21.6651 53.5251 23.4966 52.042Z" fill="#F2AAAA"/>
<path d="M19.6067 46.0041C19.5626 46.4478 20.1803 46.8914 20.9965 46.9802C21.8127 47.0689 22.5186 46.7805 22.5627 46.3368C22.6068 45.8932 21.9891 45.4495 21.1729 45.3608C20.3567 45.272 19.6508 45.5604 19.6067 46.0041Z" fill="#F9C5C5"/>
<path d="M21.9235 51.7275C21.3941 52.6592 21.1735 53.6797 21.703 54.6336C22.5853 56.2309 24.703 55.8316 26.2251 55.7872C27.8134 55.7428 29.4238 55.765 31.012 55.7206C33.1959 55.6763 36.0636 55.9425 38.071 54.9442C39.3064 54.3452 39.1961 53.2804 38.5564 52.1712C37.6299 50.5518 35.5342 48.8214 34.8063 48.2224C33.3944 47.0467 31.6518 46.0262 29.7767 46.4255C27.6369 46.847 25.5634 47.9562 23.931 49.3982C23.2471 49.975 22.4309 50.7958 21.9235 51.7275Z" fill="#FDAE34"/>
<path d="M21.9235 51.7273C21.3941 52.659 21.1735 53.6795 21.703 54.6334C22.5853 56.2306 24.703 55.8313 26.2251 55.787C27.8134 55.7426 29.4238 55.7648 31.012 55.7204C33.1959 55.676 36.0636 55.9422 38.071 54.944C39.3064 54.345 39.1961 53.2802 38.5564 52.171C37.321 53.7017 33.6592 53.6573 31.9385 53.9235C30.2179 54.1897 28.4973 54.1675 26.7766 54.0122C25.0339 53.857 23.3795 54.2341 22.3427 52.4815C22.1662 52.2375 22.0338 51.9935 21.9235 51.7273Z" fill="#FF991F"/>
<path d="M28.9163 47.2242C29.7987 47.0689 30.7913 46.7583 31.6737 46.958C31.9605 47.0245 31.9164 47.5126 31.6296 47.4238C30.7693 47.2242 29.8207 47.5347 28.9825 47.69C28.6957 47.7344 28.6295 47.2685 28.9163 47.2242Z" fill="white"/>
<path d="M28.0566 47.6234C28.2992 47.8009 28.0125 48.2002 27.7698 48.0006C27.5271 47.8231 27.8139 47.4238 28.0566 47.6234Z" fill="white"/>
<path opacity="0.2" d="M39.9883 10.4877C40.4075 10.2881 40.8487 10.1106 41.2898 10.1106C41.7531 10.1106 42.2384 10.3546 42.3928 10.7761C42.5693 11.1976 42.3708 11.7078 42.0619 12.0406C41.7531 12.3734 41.334 12.573 40.9369 12.817C39.9222 13.416 39.0398 14.2146 38.0251 14.7914C37.0986 15.3016 36.0838 15.6344 35.047 15.7453C34.3852 15.8119 33.2602 15.5678 33.7014 14.6805C34.0323 14.0593 35.0911 13.4604 35.6647 13.0389C37.0324 12.0406 38.4662 11.1754 39.9883 10.4877Z" fill="white"/>
<path d="M57.8133 34.6459L47.4454 32.605C42.7026 30.6749 37.4304 29.8098 32.4229 29.5657C32.2906 29.5657 32.1582 29.5657 32.0038 29.5436L19.8711 27.1477C21.1947 24.2416 23.2903 21.757 25.5404 19.472C25.6065 19.4055 25.6727 19.3389 25.7389 19.2724C26.5992 18.4072 27.4816 17.5642 28.4081 16.7656C34.9597 10.9756 42.7688 6.64968 51.1293 4.18726C51.9676 4.94151 53.1808 5.27427 54.2838 5.47393C54.6809 5.54048 55.0559 5.60703 55.453 5.67358C55.8721 6.69405 56.2471 7.73669 56.5118 8.84589C56.578 9.13429 56.6442 9.42268 56.7104 9.71107C57.2398 12.5728 57.7471 15.4124 57.9457 18.3185C58.3428 23.7314 58.2766 29.2552 57.8133 34.6459Z" fill="#6FAE99"/>
<path d="M57.8133 34.6459L47.4454 32.605C42.7026 30.675 37.4304 29.8098 32.4229 29.5658C32.2905 29.5658 32.1582 29.5658 32.0038 29.5436L19.8711 27.1477C21.1947 24.2416 23.2903 21.757 25.5404 19.4721C25.6065 19.4055 25.6727 19.339 25.7389 19.2724C26.5992 18.4072 27.4816 17.5643 28.4081 16.7656C30.4817 16.5882 32.5773 16.6103 34.6509 16.7878C37.2319 16.9875 39.8128 17.409 42.3496 17.9192C45.1291 18.496 48.1292 19.1837 50.7322 18.0079C53.2249 16.8987 54.747 14.3032 55.5853 11.6855C55.8721 10.7538 56.1368 9.75549 56.5339 8.84595C56.6 9.13434 56.6662 9.42273 56.7324 9.71112C57.2618 12.5729 57.7692 15.4124 57.9677 18.3185C58.3427 23.7314 58.2765 29.2552 57.8133 34.6459Z" fill="#5FA38A"/>
<path d="M62.159 34.291C62.2252 36.0657 61.6737 37.7961 60.1516 39.1493C59.9972 39.2824 58.9824 40.3472 58.7177 40.1698C57.2618 39.0384 55.9382 37.7517 54.4823 36.5981C52.3867 34.9565 50.0484 33.6699 47.5777 32.6716C42.7246 30.6972 37.3863 29.8099 32.2685 29.588C32.1361 29.588 31.9817 29.588 31.8493 29.5658C27.3933 29.3884 22.7167 29.7877 19.0549 32.2945C18.7902 32.4719 18.5254 32.6716 18.2166 32.7381C16.9372 32.9822 17.2681 30.8525 17.2019 30.1426C17.1136 29.0334 17.1798 27.902 17.4004 26.815C17.5769 26.0164 17.8416 25.2178 18.2166 24.4857C18.8122 23.2656 19.6725 22.1786 20.7534 21.3578C22.1432 20.3151 23.7535 19.583 25.4742 19.0728C29.136 17.9858 33.3053 17.9414 36.8127 18.252C41.2687 18.6513 45.6144 19.8271 49.7837 21.4687C52.6073 22.5779 55.7176 24.1308 58.1221 26.2604C58.4971 26.5932 58.8501 26.9703 59.203 27.3696C60.7913 29.2331 62.0708 31.8286 62.159 34.291Z" fill="#EF8F8F"/>
<path d="M62.159 34.2909C62.2252 36.0656 61.6737 37.796 60.1516 39.1492C59.9972 39.2823 58.9824 40.3471 58.7177 40.1697C57.2618 39.0383 55.9382 37.7516 54.4823 36.5981C52.3867 34.9564 50.0484 33.6698 47.5777 32.6715C42.7246 30.6971 37.3863 29.8098 32.2685 29.5879C32.1361 29.5879 31.9817 29.5879 31.8493 29.5657C27.3933 29.3883 22.7167 29.7876 19.0549 32.2944C18.7902 32.4718 18.5254 32.6715 18.2166 32.738C16.9372 32.9821 17.2681 30.8524 17.2019 30.1425C17.1136 29.0333 17.1798 27.9019 17.4004 26.8149C17.5769 26.0163 17.8416 25.2177 18.2166 24.4856C18.3049 24.5965 18.4372 24.7074 18.5696 24.8184C19.1652 25.2399 19.9152 25.4395 20.6211 25.5726C23.7976 26.1938 27.0845 25.7057 30.3272 25.617C33.7244 25.5061 37.1215 25.8388 40.4525 26.3934C44.5997 27.0811 48.7248 28.1016 52.4308 30.0538C55.5632 31.6954 58.5413 34.0025 62.0708 34.2687C62.1149 34.2909 62.1369 34.2909 62.159 34.2909Z" fill="#E57F7F"/>
<path d="M40.1447 19.4723C39.3726 20.8034 39.0638 22.3119 38.7549 23.7982L37.652 29.0115C37.5417 29.4773 38.2696 29.6548 38.3799 29.1889C38.7329 27.5029 39.0858 25.8391 39.4388 24.1532C39.7476 22.6668 40.0344 21.1583 40.8065 19.8273C41.0271 19.4058 40.3873 19.0508 40.1447 19.4723Z" fill="#D66969"/>
<path d="M38.2678 19.2947C36.8119 22.1343 35.8633 25.2178 35.4883 28.4123C35.4442 28.8782 36.1501 29.0779 36.2163 28.5898C36.5692 25.4619 37.4957 22.4448 38.9075 19.6718C39.1502 19.2282 38.4884 18.851 38.2678 19.2947Z" fill="#D66969"/>
<path d="M36.2837 19.095C34.3866 21.8236 33.5924 25.1068 32.8424 28.3013C32.7321 28.7672 33.4601 28.9447 33.5704 28.4788C34.2983 25.3287 35.0704 22.1342 36.9455 19.4499C37.2102 19.0506 36.5484 18.6957 36.2837 19.095Z" fill="#D66969"/>
<path d="M33.7034 19.1172C33.0416 20.5592 32.2034 22.0011 31.9166 23.5762C31.6078 25.1956 31.4534 26.8594 31.2328 28.501C31.1666 28.9669 31.8945 29.1666 31.9607 28.6785C32.1813 27.0813 32.3357 25.484 32.6004 23.909C32.8652 22.3561 33.7034 20.9141 34.3431 19.4722C34.5637 19.0285 33.902 18.6735 33.7034 19.1172Z" fill="#D66969"/>
<path d="M30.6808 19.339C29.5998 22.3117 28.916 25.3953 28.6513 28.5454C28.6072 29.0334 29.3572 29.0113 29.4013 28.5232C29.666 25.4396 30.3499 22.4004 31.4087 19.5165C31.5852 19.0728 30.8572 18.8954 30.6808 19.339Z" fill="#D66969"/>
<path d="M28.0548 19.8495C27.3709 22.5115 26.8856 25.218 26.5547 27.9466C26.5106 28.4125 27.2165 28.6121 27.2827 28.1241C27.5915 25.3955 28.0989 22.689 28.7827 20.0269C28.893 19.5611 28.1651 19.3836 28.0548 19.8495Z" fill="#D66969"/>
<path d="M26.0256 20.1376C25.0329 22.9328 24.5035 25.8833 24.4814 28.8337C24.4814 29.3218 25.2315 29.2996 25.2315 28.8116C25.2535 25.9055 25.783 23.0437 26.7536 20.3151C26.908 19.8714 26.18 19.6939 26.0256 20.1376Z" fill="#D66969"/>
<path d="M23.9959 20.892C22.7165 23.5097 22.0547 26.3715 22.0547 29.2776C22.0547 29.7656 22.8047 29.7434 22.8047 29.2554C22.8268 26.4824 23.4444 23.7316 24.6577 21.247C24.8562 20.8255 24.2165 20.4705 23.9959 20.892Z" fill="#D66969"/>
<path d="M21.702 21.7792C20.5329 24.4413 19.9152 27.2809 19.8711 30.187C19.8711 30.675 20.6211 30.6528 20.6211 30.1648C20.6652 27.414 21.2608 24.6631 22.3638 22.1342C22.5623 21.7127 21.9006 21.3577 21.702 21.7792Z" fill="#D66969"/>
<path d="M19.4081 23.3543C18.5478 25.8611 18.1066 28.4789 18.0625 31.1188C18.0625 31.6068 18.8125 31.5846 18.8125 31.0966C18.8346 28.5232 19.2978 25.9721 20.1361 23.5318C20.2905 23.066 19.5625 22.8885 19.4081 23.3543Z" fill="#D66969"/>
<path d="M41.7092 20.0934C41.0695 23.0438 40.4518 26.0165 39.8121 28.967C39.7018 29.4328 40.4298 29.6103 40.5401 29.1444C41.1798 26.194 41.7975 23.2213 42.4372 20.2708C42.5475 19.805 41.8195 19.6275 41.7092 20.0934Z" fill="#D66969"/>
<path d="M43.5194 20.8917C43.3871 23.82 42.9238 26.7039 42.1518 29.5435C42.0194 30.0093 42.7474 30.1868 42.8797 29.7209C43.6739 26.837 44.1371 23.8644 44.2695 20.8695C44.2915 20.3815 43.5415 20.4037 43.5194 20.8917Z" fill="#D66969"/>
<path d="M45.4822 21.5797C45.5043 24.508 45.0852 27.3919 44.2469 30.1871C44.1145 30.653 44.8204 30.8304 44.9749 30.3646C45.8572 27.525 46.2764 24.5524 46.2322 21.5575C46.2322 21.0695 45.4822 21.0917 45.4822 21.5797Z" fill="#D66969"/>
<path d="M48.3945 22.0456C48.3503 21.5575 47.6224 21.5797 47.6444 22.0677C47.865 25.0626 47.468 28.0574 46.5194 30.897C46.365 31.3628 47.093 31.5403 47.2474 31.0744C48.218 28.1683 48.593 25.0848 48.3945 22.0456Z" fill="#D66969"/>
<path d="M50.6884 22.9549C50.6002 22.489 49.8943 22.7108 49.9825 23.1767C50.4678 26.105 50.181 29.0998 49.1884 31.8728C49.0339 32.3165 49.7619 32.494 49.9163 32.0503C50.931 29.1442 51.1958 26.0163 50.6884 22.9549Z" fill="#D66969"/>
<path d="M52.1217 24.1532C52.254 27.1702 51.9672 30.1872 51.2613 33.1155C51.151 33.5814 51.879 33.7589 51.9893 33.293C52.7173 30.2982 53.004 27.2146 52.8717 24.131C52.8496 23.643 52.0996 23.6651 52.1217 24.1532Z" fill="#D66969"/>
<path d="M54.7916 25.0622C54.7254 24.5964 53.9754 24.5964 54.0416 25.0844C54.4387 28.0793 54.0857 31.1407 52.9828 33.9358C52.8063 34.3795 53.4681 34.7345 53.6445 34.2908C54.8137 31.3625 55.2108 28.1902 54.7916 25.0622Z" fill="#D66969"/>
<path d="M57.0862 26.4154C57.0421 25.9274 56.2921 25.9496 56.3362 26.4376C56.6009 29.6765 56.1818 32.9153 55.1229 35.9767C54.9685 36.4426 55.6965 36.5979 55.8509 36.1542C56.9318 33.0484 57.3509 29.7208 57.0862 26.4154Z" fill="#D66969"/>
<path d="M59.0927 27.8135C59.0044 27.3476 58.2985 27.5695 58.3868 28.0353C58.6515 29.6548 58.7838 31.2077 58.4971 32.8493C58.2324 34.38 57.725 35.8441 57.2177 37.3083C57.0632 37.7741 57.7912 37.9294 57.9456 37.4857C58.4971 35.9107 59.0265 34.3356 59.2691 32.694C59.5118 31.0302 59.3574 29.4551 59.0927 27.8135Z" fill="#D66969"/>
<path d="M60.4166 31.4293C60.4828 33.9361 59.9755 36.4429 58.9166 38.7057C58.7181 39.1493 59.3578 39.5043 59.5784 39.0606C60.6814 36.6647 61.2328 34.047 61.1667 31.4071C61.1446 30.9191 60.3946 30.9413 60.4166 31.4293Z" fill="#D66969"/>
<path opacity="0.2" d="M44.5337 21.4244C44.9528 21.5353 45.394 21.6684 45.7249 21.9568C46.0558 22.2452 46.2102 22.7776 45.9675 23.1547C45.7911 23.4209 45.4822 23.554 45.1734 23.6206C44.0263 23.909 42.813 23.8424 41.6439 23.7537C36.9893 23.3766 32.3127 22.7332 27.6582 23.2213C26.9082 23.31 23.6213 23.8646 23.6875 22.467C23.7316 21.38 25.7832 20.7589 26.5994 20.6036C30.3715 19.8715 34.3422 19.8271 38.1585 20.2265C40.2983 20.4483 42.438 20.8476 44.5337 21.4244Z" fill="white"/>
<path d="M59.3785 9.62248C59.3785 10.2214 59.2461 10.7982 58.9373 11.3306C58.099 12.7282 56.1357 13.4825 54.4372 13.2607C52.8709 14.7026 50.5326 14.4142 49.2311 13.0832C47.7973 13.4603 46.2531 13.061 45.2604 11.4859C44.5545 10.3546 44.5987 8.95696 45.1943 7.80339C45.3487 7.515 45.5252 7.24879 45.7237 7.00477C45.7237 6.89385 45.7458 6.76075 45.7678 6.64983C45.7016 6.47235 45.6575 6.2727 45.6355 6.09523C45.6355 6.07304 45.6134 6.07304 45.6134 6.05086C44.7972 4.38706 45.2825 2.50142 46.7164 1.48096C46.937 1.32567 47.1796 1.19256 47.4223 1.08165C48.812 0.482677 50.3341 0.815437 51.4812 1.68061C53.3121 0.21647 56.0696 0.21647 57.9005 2.19084C58.077 2.36832 58.2093 2.59016 58.3417 2.78981C58.7167 3.41096 58.8711 4.09867 58.849 4.80855C58.849 5.05258 58.827 5.31879 58.7829 5.56281C58.9373 5.74028 59.0696 5.91775 59.1799 6.11741C59.2902 6.29488 59.3785 6.47235 59.4667 6.67201C59.9079 7.62592 59.8638 8.69075 59.3785 9.62248Z" fill="#E57F7F"/>
<path d="M59.18 6.07304C59.18 6.56109 59.0697 7.04914 58.8491 7.49282C58.8491 8.02523 58.7388 8.53546 58.4741 9.00133C57.7461 10.2436 56.0035 10.887 54.5034 10.6873C53.1357 11.9518 51.0842 11.7078 49.9151 10.532C48.6356 10.8648 47.29 10.532 46.4297 9.13443C46.2973 8.93477 46.2091 8.71293 46.1429 8.49109C45.8341 8.29144 45.5252 8.09178 45.2385 7.82558C45.2164 7.82558 45.2164 7.80339 45.1943 7.80339C45.3488 7.515 45.5252 7.24879 45.7238 7.00477C45.7238 6.89385 45.7458 6.76074 45.7679 6.64982C45.7017 6.47235 45.6576 6.2727 45.6355 6.09523C45.6355 6.07304 45.6135 6.07304 45.6135 6.05086C44.7973 4.38706 45.2826 2.50142 46.7164 1.48096C46.937 1.32567 47.1797 1.19256 47.4223 1.08165C48.8121 0.482677 50.3342 0.815437 51.4813 1.68061C53.3122 0.21647 56.0696 0.21647 57.9006 2.19084C58.077 2.36832 58.2094 2.59016 58.3418 2.78981C58.7168 3.41096 58.8712 4.09867 58.8491 4.80855C58.8491 5.05258 58.8271 5.31879 58.7829 5.56281C58.9153 5.69591 59.0477 5.87339 59.18 6.07304Z" fill="#EF8F8F"/>
<path d="M51.6565 5.16327C51.5904 4.85269 51.5242 4.54212 51.458 4.23154C51.4139 3.96533 51.3477 3.69913 51.2374 3.4551C50.9506 2.92269 50.2889 2.78958 49.7594 2.70085C49.1859 2.61211 48.6123 2.65648 48.0829 2.94487C47.6197 3.21108 47.2447 3.63257 47.0682 4.14281C46.8255 4.76396 46.9138 5.45166 47.2226 6.05063C47.3108 6.2281 47.5755 6.27247 47.73 6.16155C47.9064 6.05063 47.9285 5.82879 47.8403 5.65132C47.355 4.71959 47.9506 3.54384 48.9653 3.38855C49.2741 3.34418 49.583 3.38855 49.8697 3.4551C50.0903 3.49947 50.4212 3.52165 50.5536 3.72131C50.6859 3.89878 50.708 4.14281 50.7521 4.34246C50.8183 4.67522 50.8845 5.00798 50.9506 5.34074C50.9948 5.5404 51.2374 5.62913 51.4139 5.58476C51.6124 5.56258 51.7007 5.36292 51.6565 5.16327Z" fill="#E57F7F"/>
<path d="M57.2608 5.56294C56.974 4.94179 56.4225 4.40937 55.8049 4.12098C55.0328 3.74385 54.1504 3.74385 53.4225 4.18753C53.0254 4.43156 53.4004 5.05271 53.8195 4.80868C54.4372 4.43156 55.1872 4.54248 55.7607 4.9196C56.2902 5.25236 56.7534 5.82915 56.7314 6.49467C56.7093 7.09363 56.3563 7.64823 55.849 7.93662C55.2534 8.26938 54.5475 8.29157 53.9078 8.09191C53.4445 7.95881 53.2901 8.6687 53.7313 8.8018C55.0328 9.17893 56.599 8.77962 57.2167 7.49294C57.5034 6.89398 57.5475 6.18409 57.2608 5.56294Z" fill="#E57F7F"/>
<path d="M65.6678 64.0399C65.6457 64.1286 65.6237 64.1952 65.6016 64.2617C65.0501 66.1917 63.4398 67.6115 61.5647 68.6763C60.5941 69.2531 59.5573 69.719 58.5867 70.1405C58.0132 70.3845 57.4396 70.6063 56.9323 70.8282C54.0204 72.0261 50.9541 72.8469 47.8658 73.4237C47.0276 73.579 46.2114 73.7121 45.3731 73.8452C45.3069 73.8452 45.2407 73.8674 45.1746 73.8674C42.2848 74.2667 39.3068 74.5329 36.3067 74.5773C35.8214 74.5994 35.314 74.5994 34.8287 74.5773C33.4831 74.5773 32.1374 74.5107 30.7918 74.422C30.3065 74.3998 29.8212 74.3554 29.3138 74.2889C27.6373 74.1114 25.9608 73.8674 24.3284 73.5346C23.9093 73.4459 23.4901 73.3571 23.049 73.2462C21.6372 72.9135 20.2695 72.5141 18.9238 72.0483C18.2841 71.8264 17.6444 71.5824 17.0267 71.3162C16.1444 70.9613 15.284 70.562 14.4458 70.1183C14.1149 69.9408 13.784 69.7633 13.4531 69.5859C13.2325 69.4749 13.034 69.364 12.8354 69.2309C11.4678 68.4323 10.1442 67.5228 8.93092 66.5023C8.55591 66.1917 8.26913 65.8368 8.02648 65.4375C7.85001 65.1491 7.71765 64.8385 7.60735 64.5279C7.38676 63.8846 7.23234 63.1969 7.18822 62.5092C7.07793 61.4 7.12204 60.2686 7.27646 59.1594C7.3647 58.4051 7.51911 57.6509 7.69559 56.9188C7.98236 55.7874 8.33531 54.6782 8.7765 53.5912C8.9971 53.0144 9.23975 52.4376 9.50446 51.883C9.65888 51.5503 9.8133 51.2397 9.96771 50.9069C10.078 50.6629 10.1883 50.4411 10.3207 50.2192C11.4898 51.4615 12.8134 52.5707 14.2031 53.5912C14.512 53.813 14.8208 54.0349 15.1296 54.2345C16.7179 55.2994 18.4165 56.1867 20.1592 56.941C20.5562 57.0963 20.9313 57.2516 21.3283 57.4069C22.7181 57.9393 24.1519 58.3608 25.6079 58.6935C26.8211 58.9597 28.0344 59.1594 29.2697 59.3147C30.1742 59.4256 31.0786 59.5143 32.0051 59.5809C35.314 59.8027 38.667 59.6696 41.998 59.3369C42.351 59.3147 42.7039 59.2703 43.0569 59.2259C43.3878 59.1816 43.7186 59.1594 44.0495 59.115C44.5348 59.0485 44.9981 59.0041 45.4834 58.9154C45.9246 58.8488 46.3437 58.8044 46.7849 58.7157C48.9688 58.3829 51.1306 57.9393 53.2704 57.4069C53.9322 57.2516 54.5939 57.0741 55.2337 56.8966C55.3881 56.8523 55.5204 56.8301 55.6528 56.7857C56.1822 56.6304 56.7117 56.4751 57.219 56.2977C57.572 56.1645 57.9249 56.0536 58.2779 55.8983C60.0206 55.1885 61.675 54.2567 62.9104 52.9257C63.1089 53.4803 63.4177 54.3455 63.6824 55.0997C63.8148 55.4768 63.9472 55.8318 64.0574 56.098C64.1236 56.2977 64.1898 56.4308 64.2119 56.4973C64.6972 57.4956 65.1384 58.5826 65.4472 59.6918C65.6898 60.5792 65.8443 61.4887 65.8663 62.3761C65.8443 62.9307 65.7781 63.4853 65.6678 64.0399Z" fill="#F7931E"/>
<path d="M65.6009 64.2619C64.6082 67.7891 59.9978 69.586 56.9315 70.8283C53.2255 72.3368 49.321 73.2686 45.3724 73.8454C34.5853 75.3982 22.4306 74.888 12.7906 69.2755C11.4229 68.4768 10.0994 67.5673 8.88609 66.5468C7.739 65.5929 7.27576 64.04 7.1434 62.5537C6.85663 59.581 7.60665 56.4975 8.73168 53.6357C8.75374 54.1903 8.7758 54.7228 8.84197 55.0111C9.39346 57.2739 10.5185 59.4036 12.1068 61.0896C15.2392 64.4615 19.8496 66.0366 24.3277 67.1014C32.8867 69.1423 41.9091 69.83 50.4461 67.6782C55.983 66.2806 61.2772 63.5742 65.4465 59.7142C65.8435 61.2227 65.998 62.7977 65.6009 64.2619Z" fill="#E87F18"/>
<path d="M65.8208 62.3538C65.2252 61.8657 64.6296 61.3555 64.034 60.8675C63.1517 60.1132 62.2472 59.3811 61.3648 58.6269C62.2252 57.7839 63.1075 56.9409 63.9899 56.1201C63.9017 55.8539 63.7693 55.499 63.6149 55.1218C62.6002 56.0757 61.6075 57.0296 60.6148 58.0057C59.8207 57.318 59.0045 56.6303 58.2103 55.9426C57.8574 56.0757 57.5044 56.2088 57.1515 56.3419C58.0559 57.1406 58.9824 57.917 59.9089 58.7156C57.8353 60.7344 55.7617 62.7753 53.7323 64.8384C52.519 63.8179 51.3278 62.7753 50.1366 61.7548C51.8131 60.1576 53.4896 58.5603 55.1661 56.9409C54.5044 57.1406 53.8646 57.2958 53.2028 57.4511C51.9455 58.6713 50.666 59.8914 49.3866 61.0893C48.4821 60.3129 47.5998 59.5364 46.6953 58.76C46.2541 58.8265 45.835 58.8931 45.3938 58.9596C45.9232 59.4033 46.4306 59.8692 46.96 60.3129C47.5336 60.8009 48.1071 61.289 48.6586 61.777C46.3865 63.9289 44.1144 66.1029 41.8202 68.2325C40.2098 66.8571 38.6216 65.4596 37.0112 64.0841C39.3054 62.4203 41.6216 60.7787 43.9379 59.1593C43.607 59.2037 43.2761 59.248 42.9452 59.2702C42.5923 59.3146 42.2393 59.359 41.8864 59.3811C39.9893 60.7122 38.1142 62.0654 36.2391 63.4186C34.7832 62.1541 33.3273 60.8897 31.8934 59.6252C30.989 59.5586 30.0625 59.4921 29.1581 59.359C26.6212 61.0006 24.1065 62.6644 21.5696 64.306C20.2019 62.7753 18.8122 61.2224 17.4445 59.6695C18.7019 58.9153 19.9593 58.1832 21.2167 57.4511C20.8196 57.2958 20.4446 57.1406 20.0475 56.9853C18.9445 57.6286 17.8636 58.2719 16.7827 58.9153C15.6577 57.6286 14.5327 56.3641 13.4076 55.0775C13.9371 54.8112 14.4665 54.545 15.018 54.301C14.7091 54.1014 14.4003 53.8795 14.0915 53.6577C13.6503 53.8795 13.187 54.1014 12.7458 54.3232C12.3267 53.8573 11.9076 53.3693 11.4885 52.9034C10.937 52.2601 10.3855 51.6389 9.834 50.9956C9.67959 51.3062 9.52517 51.6389 9.37075 51.9717C10.187 52.9034 11.0032 53.8573 11.8194 54.7891C10.9149 55.2549 9.98842 55.7208 9.08398 56.2088C8.57662 56.475 8.06925 56.7413 7.53982 57.0075C7.4957 57.1849 7.45158 57.3846 7.40746 57.5621C7.31923 57.9392 7.25305 58.3163 7.18687 58.6934C7.16481 58.8709 7.12069 59.0706 7.09863 59.248C8.06925 60.5125 9.03986 61.7548 10.0325 62.9971C9.17222 63.5295 8.3119 64.062 7.45158 64.6166C7.51776 64.7718 7.56188 64.9271 7.65012 65.0824C7.7163 65.2377 7.80453 65.393 7.87071 65.5261C8.79721 64.9493 9.72371 64.3503 10.6723 63.7736C12.0179 65.4595 13.3635 67.1012 14.7091 68.765C14.2459 69.0755 13.7826 69.3861 13.3194 69.6745C13.4738 69.7632 13.6062 69.8298 13.7606 69.9185C13.9591 70.0073 14.1356 70.1182 14.3121 70.2069L15.3489 69.5414C15.8562 70.1625 16.3857 70.7837 16.9151 71.4049C17.2019 71.538 17.5107 71.6489 17.8195 71.7598C17.8636 71.782 17.9298 71.8042 17.9739 71.8263C18.2386 71.9151 18.4813 72.026 18.746 72.1147C18.7681 72.1369 18.8122 72.1369 18.8343 72.1591C17.9519 71.1165 17.0916 70.0738 16.2092 69.009L20.599 66.1473L21.3711 65.637C21.6579 65.9698 21.9667 66.3025 22.2535 66.6353C23.5329 68.0773 24.8344 69.5192 26.1139 70.939C25.4741 71.427 24.8344 71.9151 24.1947 72.4031C23.7976 72.7137 23.3785 73.0243 22.9814 73.3349C23.4006 73.4458 23.8197 73.5345 24.2609 73.6232C25.0991 72.9799 25.9594 72.3144 26.8198 71.6711C27.636 72.5806 28.4522 73.468 29.2684 74.3775C29.511 74.3997 29.7537 74.4219 29.9963 74.4441C30.239 74.4662 30.4816 74.4884 30.7243 74.5106C29.6875 73.3792 28.6286 72.2257 27.6139 71.0943C28.7831 70.2069 29.9522 69.3417 31.1214 68.4544C32.7979 67.2121 34.4744 65.9476 36.173 64.7275C37.8054 66.1473 39.4157 67.5448 41.0481 68.9646C41.026 68.9868 41.004 68.9868 41.004 69.009C39.3275 70.5619 37.6289 72.1147 35.9303 73.6454C35.5332 74.0004 35.1582 74.3331 34.7612 74.6881C35.0038 74.6881 35.2465 74.6881 35.4891 74.6881C35.7318 74.6881 35.9744 74.6881 36.2391 74.6881C38.1142 73.0243 39.9672 71.3383 41.7981 69.6301C43.1437 70.8059 44.5114 71.9816 45.8571 73.1574C45.6144 73.4236 45.3497 73.6898 45.107 73.9782C45.1732 73.9782 45.2394 73.956 45.3056 73.956C46.1438 73.8451 46.96 73.6898 47.7983 73.5345C47.6218 73.3792 47.4453 73.2239 47.2689 73.0908C49.188 71.0055 51.1293 68.9646 53.1146 66.9237C53.3352 66.7018 53.5558 66.48 53.7543 66.2582C53.8867 66.3691 53.997 66.4578 54.1293 66.5687C55.5853 67.811 57.0633 69.0312 58.5192 70.2513C59.5118 69.8298 60.5266 69.3417 61.5193 68.7871C62.8649 67.2343 64.2326 65.6814 65.6003 64.1285C65.6223 64.0176 65.6444 63.9289 65.6664 63.8179L65.7105 63.6183C65.8208 63.1524 65.8429 62.7531 65.8208 62.3538ZM8.70897 59.5364C8.33396 59.0484 7.95895 58.5825 7.58394 58.0945C8.22366 57.7617 8.86339 57.4068 9.50311 57.074C9.96636 56.83 10.4517 56.586 10.9149 56.3419C11.4443 56.0535 11.9958 55.7873 12.5473 55.5211C13.6723 56.83 14.8194 58.1388 15.9445 59.4255C14.7753 60.1132 13.6282 60.8231 12.4591 61.5108C11.9517 61.8214 11.4664 62.1098 10.959 62.4203C10.2311 61.4664 9.45899 60.4903 8.70897 59.5364ZM15.6577 68.166C14.29 66.5244 12.9444 64.8606 11.6208 63.1968C12.1723 62.864 12.7017 62.5313 13.2532 62.1985C14.3782 61.5108 15.5033 60.8453 16.6283 60.1576C17.996 61.7326 19.3857 63.2633 20.7755 64.8384C20.3564 65.1268 19.9152 65.393 19.496 65.6814C18.2166 66.5022 16.9371 67.3452 15.6577 68.166ZM29.7978 68.1882C28.8492 68.8759 27.9227 69.5858 26.9962 70.2957C26.0256 69.2086 25.033 68.1216 24.0623 67.0346C23.4667 66.3691 22.8711 65.7036 22.2755 65.0381L30.5037 59.6695C31.4964 60.5569 32.5111 61.4443 33.5258 62.3094C34.1656 62.864 34.8053 63.4186 35.4671 63.9954C33.57 65.3708 31.6728 66.7684 29.7978 68.1882ZM46.585 72.3366C45.8129 71.6489 45.0188 70.9834 44.2467 70.2957C43.6952 69.8298 43.1437 69.3417 42.5923 68.8759C44.8864 66.7462 47.1586 64.5944 49.4307 62.4203C50.644 63.463 51.8572 64.4835 53.0705 65.5261C52.4528 66.1694 51.8352 66.8128 51.2175 67.4561C49.6292 69.0533 48.1071 70.695 46.585 72.3366ZM59.4457 69.608C59.0707 69.2974 58.6736 68.9646 58.2986 68.654C57.2618 67.7889 56.2471 66.9237 55.2323 66.0585C54.9897 65.8589 54.747 65.6592 54.5044 65.4595C56.5338 63.3964 58.5854 61.3333 60.6589 59.3146C61.5193 60.0467 62.3796 60.7787 63.2399 61.5108C63.8796 62.0432 64.5193 62.5756 65.1591 63.1302C63.262 65.2599 61.3648 67.4339 59.4457 69.608Z" fill="#FCC58D"/>
<path d="M16.2756 68.9425C17.1359 69.9851 18.0183 71.0278 18.9007 72.0926C18.8786 72.0926 18.8345 72.0704 18.8124 72.0482C18.5477 71.9595 18.3051 71.8708 18.0403 71.7598C17.9962 71.7377 17.93 71.7155 17.8859 71.6933C17.5771 71.5824 17.2903 71.4493 16.9815 71.3383C16.4521 70.7172 15.9447 70.096 15.4153 69.4749L14.3785 70.1404C14.1799 70.0517 14.0035 69.9408 13.827 69.852C13.6726 69.7633 13.5402 69.6967 13.3858 69.608C13.849 69.2974 14.3123 69.009 14.7755 68.6985C13.4079 67.0347 12.0622 65.393 10.7387 63.7071C9.81217 64.2838 8.86362 64.8606 7.93712 65.4596C7.84888 65.3043 7.7827 65.1712 7.71653 65.0159C7.65035 64.8606 7.58417 64.7053 7.51799 64.5501C8.37831 63.9955 9.23863 63.463 10.0989 62.9306C9.10627 61.6883 8.13565 60.446 7.16504 59.1815C7.1871 59.0041 7.20916 58.8044 7.25328 58.6269C7.31946 58.2498 7.38563 57.8727 7.47387 57.4956C7.51799 57.3181 7.56211 57.1184 7.60623 56.941C8.11359 56.6748 8.62096 56.4085 9.15039 56.1423C9.26069 56.4529 9.37098 56.7635 9.50334 57.0519C8.86362 57.3846 8.22389 57.7396 7.58417 58.0723C7.95918 58.5604 8.33419 59.0484 8.7092 59.5143C9.45922 60.4904 10.2313 61.4443 10.9813 62.3982C11.4887 62.0876 11.974 61.7771 12.4814 61.4887C12.724 61.7327 12.9887 61.9545 13.2314 62.1764C12.6799 62.5091 12.1284 62.8419 11.599 63.1746C12.9226 64.8384 14.2902 66.5022 15.6359 68.1439C16.9153 67.3009 18.1948 66.4801 19.4742 65.6371C19.8713 65.7924 20.2683 65.9255 20.6654 66.0586L16.2756 68.9425Z" fill="#EF9850"/>
<path d="M27.6583 71.0281C28.6951 72.1816 29.7319 73.313 30.7687 74.4444C30.526 74.4222 30.2834 74.4 30.0407 74.3778C29.7981 74.3557 29.5554 74.3335 29.3128 74.3113C28.4966 73.4239 27.6804 72.5144 26.8642 71.6049C26.0038 72.2482 25.1656 72.8915 24.3053 73.557C23.8861 73.4683 23.467 73.3796 23.0258 73.2686C23.4449 72.9581 23.842 72.6475 24.2391 72.3369C24.8788 71.8489 25.5185 71.3608 26.1583 70.8728C24.8567 69.4308 23.5773 68.011 22.2979 66.5691C22.8714 66.7244 23.4449 66.8797 24.0405 67.0128C25.0112 68.0998 25.9818 69.1868 26.9745 70.2738C27.9009 69.5639 28.8495 68.8762 29.776 68.1663C30.2392 68.2329 30.7025 68.3216 31.1657 68.366C29.9966 69.2534 28.8274 70.1407 27.6583 71.0281Z" fill="#EF9850"/>
<path d="M47.3358 72.98C47.5123 73.1353 47.6888 73.2684 47.8653 73.4237C47.027 73.579 46.2108 73.7121 45.3725 73.8452C45.3064 73.8452 45.2402 73.8674 45.174 73.8674C45.4167 73.6012 45.6593 73.3128 45.924 73.0466C44.5784 71.8708 43.2107 70.6951 41.8651 69.5193C40.0342 71.2275 38.1812 72.9135 36.3061 74.5773C36.0635 74.5773 35.8208 74.5773 35.5561 74.5773C35.3134 74.5773 35.0708 74.5773 34.8281 74.5773C35.2252 74.2223 35.6002 73.8896 35.9973 73.5346C37.6958 72.0039 39.3944 70.451 41.0709 68.8982C41.5783 68.876 42.0857 68.8538 42.593 68.8094C43.1445 69.2753 43.696 69.7633 44.2475 70.2292C45.0196 70.9169 45.8137 71.5824 46.5858 72.2701C48.1079 70.6285 49.63 68.9869 51.1962 67.3675C51.858 67.19 52.5198 66.9904 53.1816 66.7463C51.1962 68.8538 49.255 70.8947 47.3358 72.98Z" fill="#EF9850"/>
<path d="M65.7541 63.5295L65.71 63.7292C65.6879 63.8401 65.6658 63.951 65.6438 64.0398C64.2761 65.5927 62.9084 67.1455 61.5628 68.6984C60.5922 69.2752 59.5554 69.7411 58.5627 70.1626C57.1068 68.9424 55.6288 67.7223 54.1729 66.48C54.5258 66.3469 54.8788 66.2138 55.2096 66.0807C56.2244 66.9459 57.2612 67.8111 58.2759 68.6762C58.6509 68.9868 59.048 69.3196 59.423 69.6301C61.3201 67.4561 63.2172 65.2821 65.1364 63.1302C64.4967 62.5978 63.857 62.0654 63.2172 61.5108C63.4819 61.3111 63.7467 61.0893 64.0114 60.8896C64.607 61.3999 65.2026 61.8879 65.7982 62.376C65.8423 62.7531 65.8202 63.1524 65.7541 63.5295Z" fill="#EF9850"/>
<path opacity="0.2" d="M58.366 57.1184C49.4319 60.4238 39.7479 61.2002 30.2182 60.8675C28.4314 60.8009 26.6225 60.7122 24.9239 61.2668C24.593 61.3777 24.2401 61.533 24.1298 61.8658C24.0415 62.1763 24.218 62.4869 24.4166 62.7309C25.0342 63.4408 25.9387 63.7514 26.8431 63.9954C31.3212 65.2155 36.0639 65.0824 40.6523 64.3947C45.2406 63.7292 49.7408 62.5313 54.3071 61.6883C55.5424 61.4664 56.7998 61.2668 57.9689 60.8453C58.8293 60.5347 59.6454 60.1132 60.3734 59.5808C61.1234 59.0484 62.5573 57.673 61.7411 56.6525C61.0352 55.7652 59.1822 56.8078 58.366 57.1184Z" fill="white"/>
<path d="M27.1505 74.7324C26.4005 75.7751 25.2975 76.5293 24.1504 77.1061C20.5106 78.9474 16.3193 79.2358 12.2604 79.8791C9.41472 80.3228 6.50288 80.9439 3.67927 80.3228C2.81895 80.1453 1.89245 79.7682 1.45127 78.9917C1.18655 78.5259 1.12037 77.9491 1.07626 77.4167C0.943899 75.3757 0.988018 73.357 1.23067 71.3383C1.36303 70.1403 1.60568 68.8758 2.04687 67.7001C2.466 66.5909 3.0616 65.5926 3.94398 64.8384C5.88521 63.1746 8.97353 63.9732 11.1795 64.55C14.9516 65.5261 18.7238 66.5022 22.496 67.4561C23.5769 67.7445 24.6798 68.0107 25.6725 68.5653C26.4005 68.9646 27.0623 69.5414 27.5035 70.2291C27.6579 70.4731 27.7902 70.7393 27.8785 71.0277C27.9005 71.1164 27.9226 71.2052 27.9446 71.2939C28.2094 72.4918 27.8343 73.7563 27.1505 74.7324Z" fill="#1A1A1A"/>
<path d="M27.1505 74.7325C26.4005 75.7751 25.2975 76.5294 24.1504 77.1062C20.5106 78.9474 16.3193 79.2358 12.2604 79.8792C9.41472 80.3228 6.50287 80.944 3.67927 80.3228C2.81895 80.1454 1.89245 79.7683 1.45127 78.9918C1.18655 78.526 1.12037 77.9492 1.07626 77.4168C0.943899 75.3758 0.988018 73.3571 1.23067 71.3384C1.36303 70.1404 1.60568 68.8759 2.04687 67.7002C2.00275 68.033 1.95863 68.3657 1.93657 68.7207C1.78216 70.6728 2.04687 72.8247 3.43661 74.2001C4.34105 75.1096 5.59844 75.5755 6.83377 75.8417C8.95147 76.3076 11.1574 76.2854 13.3192 76.1301C15.7237 75.9526 18.1282 75.5977 20.4224 74.8656C23.0695 74.0226 25.5181 72.6916 27.9667 71.3162C28.2094 72.4919 27.8343 73.7564 27.1505 74.7325Z" fill="black"/>
<path d="M67.6968 80.9218C67.6526 81.8091 67.5423 82.7408 67.1453 83.5173C66.4173 84.9149 65.0717 85.1589 63.6158 84.9814C61.829 84.7596 60.0642 84.3159 58.3215 83.85C54.439 82.8518 50.5345 81.8313 46.8285 80.2784C45.4388 79.7016 44.0491 79.0361 42.902 78.06C41.7328 77.0839 40.8063 75.7973 40.5195 74.2887C40.299 73.1352 40.5195 71.7598 41.2255 70.8059C41.5343 70.3844 41.9314 70.0516 42.4167 69.8519C44.2476 69.0755 46.4094 68.9646 48.3506 68.7871C52.5861 68.41 56.7994 68.0107 61.0348 67.6114C62.0054 67.5226 63.0643 67.4339 63.9467 67.8554C65.8879 68.7649 66.2629 71.427 66.7262 73.2683C67.1012 74.7102 67.3879 76.1744 67.5644 77.6607C67.5865 77.8604 67.6085 78.0378 67.6306 78.2375C67.7188 79.147 67.7409 80.0344 67.6968 80.9218Z" fill="#1A1A1A"/>
<path d="M67.6968 80.9218C67.6527 81.8092 67.5424 82.7409 67.1453 83.5173C66.4173 84.9149 65.0717 85.159 63.6158 84.9815C61.829 84.7596 60.0642 84.316 58.3215 83.8501C54.4391 82.8518 50.5345 81.8314 46.8285 80.2785C45.4388 79.7017 44.0491 79.0362 42.902 78.0601C41.7328 77.084 40.8063 75.7973 40.5195 74.2888C40.299 73.1352 40.5195 71.7598 41.2255 70.8059C42.3064 72.8025 43.7182 74.4663 45.7035 75.7751C48.2845 77.4611 51.2845 78.3706 54.3067 78.8587C58.5421 79.5464 62.976 79.4355 66.9909 77.9048C67.1894 77.8382 67.3659 77.7495 67.5644 77.6608C67.5865 77.8604 67.6085 78.0379 67.6306 78.2375C67.7188 79.1471 67.7409 80.0345 67.6968 80.9218Z" fill="black"/>
</svg>
