<svg width="96" height="123" viewBox="0 0 96 123" fill="none" xmlns="http://www.w3.org/2000/svg">
<path d="M35.1796 78.719C31.3384 74.4748 27.4973 70.2463 23.5302 66.1121C20.3974 62.8424 17.2017 59.6357 13.9115 56.5389C11.4242 56.7904 8.92111 56.7433 6.44953 56.3975C5.00122 56.1931 5.28458 53.9295 6.74864 54.1339C8.37012 54.3697 9.9916 54.4483 11.6131 54.4011C11.1093 53.9452 10.5898 53.4737 10.0861 53.0335C8.99982 52.0589 10.3694 50.2355 11.4714 51.2101C13.6439 53.1435 15.7691 55.1242 17.8629 57.152C17.8156 55.4071 17.7999 53.678 17.8314 51.9331C17.8629 50.4712 20.1298 50.7699 20.0983 52.2318C20.0511 54.5111 20.0983 56.7904 20.2085 59.054C20.2085 59.1798 20.2085 59.3056 20.177 59.4156C21.9244 61.1604 23.6404 62.921 25.3405 64.6973C29.2919 68.8315 33.1488 73.06 36.9743 77.2886C37.966 78.3889 36.1557 79.8037 35.1796 78.719Z" fill="#9B500D"/>
<path d="M36.9744 77.3058C37.9662 78.3904 36.1558 79.8052 35.1797 78.7048C31.3386 74.4605 27.4974 70.232 23.5303 66.0978C24.1285 65.6262 24.7267 65.1546 25.3407 64.6987C29.292 68.833 33.149 73.0615 36.9744 77.3058Z" fill="#874006"/>
<path d="M0.404132 48.7581C0.482844 49.104 0.561557 49.4498 0.671754 49.7799C1.19126 51.399 2.13581 52.8766 3.26927 54.1499C5.12689 56.2406 7.50401 57.8596 9.88113 59.3216C9.92836 59.353 9.97558 59.3844 10.0228 59.4002C10.4321 59.6517 10.8414 59.8875 11.2665 60.1232C11.3767 60.1861 11.4869 60.249 11.6128 60.3119C12.0064 60.5319 12.3999 60.7363 12.7935 60.9407C12.8407 60.9564 12.8879 60.9878 12.9352 61.0035C13.1871 61.1293 13.4232 61.2393 13.6751 61.3651C15.2336 60.2333 16.7606 59.0229 18.2561 57.7968C19.2007 57.0265 20.1295 56.2248 20.9953 55.376C21.0111 55.3603 21.0268 55.3445 21.0426 55.3288C20.9796 55.0302 20.9009 54.7158 20.8222 54.4171C20.8064 54.3699 20.7907 54.3071 20.7907 54.2599C20.6805 53.8669 20.5703 53.4582 20.4601 53.0652C20.4286 52.9866 20.4129 52.908 20.3814 52.8294C19.8619 51.116 19.2164 49.4026 18.3978 47.815C17.8468 46.7618 17.2014 45.74 16.3985 44.8597C15.8318 44.2467 15.1391 43.3978 14.2418 43.3192C13.9427 43.2878 13.6436 43.3664 13.4232 43.5707C13.25 43.7279 13.1713 43.9637 13.1083 44.1838C12.8092 45.3942 13.2973 46.7618 13.6751 47.9093C13.6908 47.9407 13.7066 47.9879 13.7066 48.0193C13.7538 48.1608 13.801 48.3023 13.864 48.4437C13.8955 48.5381 13.927 48.6167 13.9584 48.711C13.9742 48.7424 13.9899 48.7738 14.0057 48.821C14.0214 48.8682 14.0372 48.9153 14.0686 48.9625C14.1631 49.1825 14.2575 49.4026 14.352 49.6227C14.1788 49.4183 14.0057 49.1983 13.8325 48.9939L13.8168 48.9782C13.6436 48.7738 13.4704 48.5695 13.2973 48.3651C13.2815 48.3337 13.2658 48.318 13.2343 48.3023C12.9194 47.9407 12.6203 47.5792 12.2897 47.2176C9.91261 44.5296 6.37055 40.3797 2.43492 42.9891C1.64779 43.5079 1.00235 44.2781 0.640269 45.1584C0.167994 46.2745 0.167994 47.5635 0.404132 48.7581Z" fill="#D10505"/>
<path d="M0.689453 49.7957C1.20896 51.4148 2.15351 52.8924 3.28697 54.1656C5.14459 56.2563 7.52171 57.8754 9.89883 59.3373C9.94605 59.3688 9.99328 59.4002 10.0405 59.4159C10.4498 59.6674 10.8591 59.9032 11.2842 60.139C11.3944 60.2019 11.5046 60.2648 11.6305 60.3276C12.0241 60.5477 12.4176 60.7521 12.8112 60.9564C12.8584 60.9721 12.9056 61.0036 12.9529 61.0193C13.2048 61.1451 13.4409 61.2551 13.6928 61.3808C15.2513 60.249 16.7783 59.0387 18.2738 57.8125C19.2184 57.0423 20.1472 56.2406 21.013 55.3918C21.0288 55.376 21.0445 55.3603 21.0603 55.3446C20.9973 55.0459 20.9186 54.7315 20.8399 54.4329C20.8241 54.3857 20.8084 54.3228 20.8084 54.2757C20.6982 53.8827 20.588 53.474 20.4778 53.081C20.4463 53.0024 20.4306 52.9238 20.3991 52.8452C16.7468 56.1306 10.4341 55.8476 6.15211 53.8355C3.99538 52.8295 2.21648 51.4305 0.689453 49.7957Z" fill="#B70000"/>
<path d="M8.10255 44.2157C7.06354 43.5241 5.83562 43.0525 4.57622 43.1311C3.33256 43.2097 2.07316 43.9014 1.53792 45.0174C1.23881 45.6305 1.17584 46.4007 1.52217 46.9823C1.61663 47.1395 1.72683 47.281 1.88425 47.3439C2.0889 47.4382 2.32504 47.4068 2.54544 47.3753C4.37157 47.0767 6.24493 46.5108 8.02383 46.9981C8.84244 47.2181 9.59809 47.6425 10.338 48.0513C10.5584 48.177 10.7945 48.3028 11.0464 48.3028C11.2983 48.3028 11.5816 48.1613 11.6289 47.9098C11.7233 47.4068 10.6213 46.5265 10.2908 46.1806C9.64531 45.4576 8.92116 44.7659 8.10255 44.2157Z" fill="#DD0B0B"/>
<path d="M11.3781 63.2984C12.055 64.2258 13.3617 64.5717 14.4794 64.1787C14.9674 64.0058 15.4239 63.7071 15.786 63.3298C16.4472 63.5813 17.2186 63.5342 17.8168 63.1412C18.2418 62.8583 18.5252 62.4495 18.6669 61.978C19.0132 61.978 19.3438 61.8994 19.6587 61.7265C20.2254 61.4278 20.6189 60.8776 20.7921 60.2646C21.2014 60.2174 21.595 60.0759 21.9413 59.8559C22.5395 59.4629 22.8859 58.8498 22.9488 58.1739C23.0748 58.0953 23.185 58.001 23.2794 57.8909C23.6415 57.4822 23.8934 57.0106 23.9878 56.4762C24.0823 55.8946 23.8934 55.2972 23.5471 54.8414C23.4369 54.6842 23.2952 54.5584 23.1377 54.4327C22.1145 53.6467 20.5087 53.7725 19.6587 54.7628C19.5327 54.9042 19.4225 55.0614 19.3438 55.2344C19.2021 55.2186 19.0604 55.2186 18.9188 55.2186C18.4465 55.2501 18.0214 55.4544 17.7066 55.7531C17.2658 55.5802 16.7463 55.6116 16.3212 55.8317C15.9749 56.0203 15.7388 56.2561 15.5341 56.5862C15.4239 56.7591 15.3452 56.932 15.2822 57.1207C14.6053 57.1993 13.9756 57.5608 13.5663 58.111C13.2357 58.5354 13.0625 59.0384 13.0311 59.5415C11.6772 59.7458 10.7169 61.082 11.0318 62.4495C11.079 62.7797 11.2049 63.0626 11.3781 63.2984Z" fill="#F2F2F2"/>
<path d="M11.3772 63.2983C11.5504 63.314 11.7236 63.2983 11.8967 63.2826C12.8728 63.1725 13.8803 62.7009 14.4785 61.9307C14.8406 62.025 15.2184 62.0564 15.5647 62.0564C16.8399 62.0407 17.9104 61.2547 18.2567 60.1858C19.768 60.1387 21.0116 58.944 21.0116 57.4192C21.3108 57.4035 21.6099 57.3563 21.909 57.2777C23.0109 56.9948 23.7194 55.9101 23.5304 54.8255C23.4203 54.6683 23.2786 54.5426 23.1211 54.4168C22.0979 53.6308 20.4921 53.7566 19.6421 54.7469C19.5161 54.8884 19.4059 55.0456 19.3272 55.2185C19.1855 55.2028 19.0438 55.2028 18.9022 55.2028C18.4299 55.2342 18.0048 55.4386 17.69 55.7372C17.2492 55.5643 16.7297 55.5958 16.3046 55.8158C15.9583 56.0045 15.7222 56.2402 15.5175 56.5704C15.4073 56.7433 15.3286 56.9162 15.2656 57.1048C14.5887 57.1834 13.959 57.545 13.5497 58.0951C13.2191 58.5196 13.0459 59.0226 13.0145 59.5256C11.6606 59.73 10.7003 61.0661 11.0152 62.4337C11.0781 62.7795 11.2041 63.0625 11.3772 63.2983Z" fill="white"/>
<path d="M20.8393 55.2976C21.0912 54.9517 21.5634 54.826 21.957 54.9832C22.0357 55.0146 22.0672 55.1246 22.0357 55.1875C22.0042 55.2661 21.9098 55.2976 21.8311 55.2661C21.5634 55.1718 21.2486 55.2661 21.0912 55.5019C20.918 55.7377 20.9652 56.0835 21.1541 56.2879C21.2171 56.3507 21.1856 56.4608 21.1226 56.5079C21.0439 56.5551 20.9495 56.5394 20.9022 56.4765C20.6031 56.1464 20.5874 55.6434 20.8393 55.2976Z" fill="#F2F2F2"/>
<path d="M18.2104 58.3475C18.2577 58.4261 18.4151 58.4261 18.4938 58.4418C18.604 58.4575 18.6984 58.4732 18.8086 58.4575C19.0133 58.4418 19.2022 58.3632 19.3281 58.206C19.58 57.8916 19.5013 57.4043 19.1392 57.2C19.0605 57.1528 19.029 57.0742 19.0605 56.9956C19.092 56.917 19.2022 56.8699 19.2652 56.917C19.8004 57.2157 19.9578 57.9231 19.5643 58.4104C19.3754 58.6461 19.092 58.7719 18.7929 58.7876C18.6355 58.7876 18.4938 58.7719 18.3364 58.7405C18.1789 58.709 18.0215 58.6619 17.9271 58.5204C17.8326 58.3632 18.1002 58.1746 18.2104 58.3475Z" fill="#F2F2F2"/>
<path d="M14.3983 60.375C14.2566 59.9034 14.3038 59.3532 14.6659 58.9917C14.8548 58.803 15.1067 58.7244 15.3743 58.6616C15.5947 58.6144 15.8466 58.5672 16.0512 58.693C16.13 58.7402 16.1614 58.8188 16.13 58.8974C16.0985 58.976 15.9883 59.0231 15.9253 58.976C15.7836 58.8816 15.6105 58.9131 15.4688 58.9602C15.2641 59.0074 15.0595 59.0703 14.902 59.2117C14.6187 59.4947 14.6029 59.9191 14.6974 60.2649C14.7604 60.4536 14.4612 60.5636 14.3983 60.375Z" fill="#F2F2F2"/>
<path d="M12.4957 61.6801C12.48 61.4915 12.48 61.3186 12.5272 61.1299C12.5745 60.9413 12.6532 60.7369 12.7949 60.5955C13.0782 60.2968 13.5033 60.3754 13.8496 60.4854C13.9283 60.5169 13.9598 60.6269 13.9283 60.6898C13.8968 60.7684 13.8024 60.7998 13.7237 60.7684C13.5033 60.6898 13.1884 60.6112 13.0152 60.8155C12.8421 61.0356 12.7949 61.3657 12.8263 61.6329C12.8421 61.853 12.5272 61.8845 12.4957 61.6801Z" fill="#F2F2F2"/>
<path d="M15.3273 61.0982C15.595 61.2082 15.9256 61.2082 16.1617 61.0353C16.3978 60.8624 16.508 60.548 16.4451 60.2651C16.4293 60.1865 16.3191 60.1393 16.2404 60.1707C16.1617 60.2022 16.1302 60.2965 16.146 60.3751V60.3908C16.146 60.3908 16.146 60.3908 16.146 60.4065C16.146 60.4222 16.146 60.4222 16.146 60.438C16.146 60.4537 16.146 60.4694 16.146 60.4694V60.4851C16.146 60.5166 16.146 60.5323 16.1302 60.5637C16.1302 60.548 16.1302 60.5637 16.1302 60.5637C16.1302 60.5794 16.1145 60.5952 16.1145 60.5952C16.1145 60.6109 16.0987 60.6266 16.0987 60.6266L16.083 60.6423L16.0672 60.658C16.0672 60.6737 16.0515 60.6737 16.0515 60.6895C16.0358 60.7052 16.0358 60.7052 16.02 60.7209L16.0043 60.7366C15.9885 60.7523 15.9728 60.7681 15.957 60.7838C15.9413 60.7838 15.9413 60.7995 15.9256 60.7995C15.9256 60.7995 15.9098 60.7995 15.9098 60.8152C15.8941 60.8309 15.8626 60.8309 15.8469 60.8467C15.8311 60.8467 15.8154 60.8624 15.8154 60.8624H15.7996C15.7681 60.8624 15.7524 60.8624 15.7209 60.8781C15.6737 60.8781 15.6422 60.8781 15.595 60.8624C15.5477 60.8467 15.532 60.8467 15.469 60.8152C15.3903 60.7838 15.2959 60.8152 15.2644 60.8938C15.2171 60.9724 15.2486 61.0667 15.3273 61.0982Z" fill="#F2F2F2"/>
<path d="M92.0409 49.3876C89.6008 49.922 87.1135 50.1578 84.6104 50.0792C81.0054 54.0091 77.5578 58.0804 74.1889 62.2303C71.0876 66.0501 68.0651 69.9171 65.0582 73.7841C64.1609 74.9316 62.2561 73.674 63.1534 72.5108C66.176 68.6124 69.2143 64.7297 72.3313 60.8942C74.3778 58.3791 76.4558 55.8797 78.5811 53.4275C78.5496 53.3174 78.5181 53.1917 78.5181 53.0659C78.4709 50.7866 78.3449 48.523 78.1245 46.2437C77.9828 44.7975 80.2183 44.3259 80.36 45.7721C80.5174 47.5013 80.6433 49.2461 80.722 50.9752C82.6584 48.806 84.6262 46.6681 86.657 44.5774C87.6802 43.5242 89.1915 45.2377 88.1682 46.2909C87.696 46.7782 87.2237 47.2812 86.7514 47.7685C88.3729 47.7056 89.9786 47.4855 91.5844 47.1397C93.0012 46.841 93.4735 49.0732 92.0409 49.3876Z" fill="#9B500D"/>
<path d="M74.1889 62.2312C71.0876 66.051 68.0651 69.9179 65.0582 73.7849C64.1609 74.9324 62.2561 73.6748 63.1534 72.5116C66.176 68.6132 69.2143 64.7305 72.3313 60.895C72.961 61.3194 73.575 61.7596 74.1889 62.2312Z" fill="#874006"/>
<path d="M95.788 42.5346C95.7408 42.8804 95.6778 43.2419 95.5991 43.5878C95.2213 45.2383 94.4027 46.7945 93.3951 48.1621C91.7107 50.41 89.491 52.2177 87.2556 53.8683C87.2084 53.8997 87.1611 53.9311 87.1296 53.9626C86.7361 54.2455 86.3425 54.5285 85.949 54.7957C85.8388 54.8743 85.7286 54.9372 85.6184 55.0158C85.2563 55.2673 84.8785 55.5031 84.5006 55.7389C84.4534 55.7703 84.4062 55.786 84.359 55.8175C84.1228 55.9589 83.8867 56.1004 83.6505 56.2419C81.9976 55.2359 80.3761 54.1669 78.7861 53.0823C77.7786 52.3906 76.7868 51.6833 75.8423 50.913C75.8265 50.8973 75.8108 50.8816 75.7793 50.8659C75.8265 50.5515 75.858 50.2528 75.921 49.9384C75.921 49.8913 75.9367 49.8284 75.9525 49.7812C76.0154 49.3725 76.0941 48.9638 76.1886 48.5551C76.2043 48.4765 76.2201 48.3822 76.2358 48.3036C76.6137 46.5587 77.1174 44.7982 77.7943 43.1476C78.2509 42.0473 78.8176 40.9941 79.5418 40.0352C80.0455 39.375 80.6752 38.479 81.5568 38.3061C81.8402 38.2589 82.155 38.3061 82.3911 38.4947C82.5643 38.6362 82.6745 38.8562 82.7532 39.0763C83.1625 40.2553 82.7847 41.67 82.5013 42.8332C82.4856 42.8647 82.4856 42.9118 82.4699 42.9433C82.4384 43.0848 82.3911 43.2262 82.3597 43.3677C82.3282 43.462 82.3124 43.5563 82.2967 43.6507C82.281 43.6821 82.2809 43.7135 82.2652 43.7607C82.2495 43.8078 82.2337 43.855 82.218 43.9022C82.155 44.138 82.0763 44.358 81.9976 44.5938C82.155 44.3737 82.3124 44.138 82.4699 43.9179L82.4856 43.9022C82.643 43.6821 82.7847 43.462 82.9421 43.2419C82.9579 43.2105 82.9736 43.1948 82.9894 43.1634C83.2727 42.7704 83.5403 42.3774 83.8395 42.0001C85.9804 39.1235 89.1447 34.6906 93.3007 36.9542C94.135 37.4101 94.8277 38.1174 95.2685 38.9506C95.8195 40.0352 95.9297 41.3085 95.788 42.5346Z" fill="#D10505"/>
<path d="M95.6001 43.5876C95.2223 45.2382 94.4037 46.7944 93.3962 48.162C91.7117 50.4099 89.492 52.2176 87.2566 53.8681C87.2093 53.8996 87.1621 53.931 87.1306 53.9624C86.7371 54.2454 86.3435 54.5283 85.9499 54.7956C85.8397 54.8742 85.7295 54.937 85.6193 55.0156C85.2573 55.2672 84.8795 55.5029 84.5016 55.7387C84.4544 55.7702 84.4072 55.7859 84.3599 55.8173C84.1238 55.9588 83.8877 56.1003 83.6515 56.2418C81.9986 55.2357 80.3771 54.1668 78.7871 53.0822C77.7796 52.3905 76.7878 51.6831 75.8432 50.9129C75.8275 50.8972 75.8118 50.8814 75.7803 50.8657C75.8275 50.5513 75.859 50.2527 75.922 49.9383C75.922 49.8911 75.9377 49.8282 75.9534 49.7811C76.0164 49.3724 76.0951 48.9637 76.1896 48.555C76.2053 48.4764 76.2211 48.3821 76.2368 48.3035C80.1567 51.2744 86.4222 50.457 90.5153 48.0834C92.5618 46.8887 94.2148 45.3482 95.6001 43.5876Z" fill="#B70000"/>
<path d="M87.729 38.6523C88.705 37.8664 89.9015 37.3005 91.1451 37.269C92.3888 37.2376 93.6954 37.8192 94.3251 38.8881C94.6714 39.4697 94.7974 40.2243 94.4983 40.853C94.4196 41.0102 94.3094 41.1674 94.1677 41.246C93.9788 41.3561 93.7269 41.3403 93.5065 41.3246C91.6646 41.1832 89.744 40.7902 88.0124 41.4032C87.2095 41.6862 86.5011 42.1735 85.7927 42.6451C85.588 42.7865 85.3519 42.928 85.1 42.9594C84.8481 42.9909 84.5648 42.8651 84.486 42.6136C84.3444 42.1263 85.3676 41.1517 85.6667 40.7744C86.2964 40.0199 86.9576 39.2654 87.729 38.6523Z" fill="#DD0B0B"/>
<path d="M86.0898 57.955C85.5073 58.9296 84.2165 59.3855 83.0673 59.1025C82.5635 58.9768 82.0755 58.7096 81.6819 58.3637C81.0365 58.6624 80.2808 58.6938 79.6511 58.348C79.2103 58.0965 78.8955 57.7192 78.7066 57.2634C78.376 57.2948 78.0296 57.2477 77.6833 57.1062C77.0851 56.8547 76.6601 56.3359 76.4397 55.7386C76.0303 55.7229 75.621 55.6286 75.259 55.4242C74.6293 55.0784 74.2357 54.4968 74.1255 53.8366C73.9996 53.7737 73.8736 53.6794 73.7792 53.5851C73.3856 53.2078 73.0865 52.7676 72.9606 52.2332C72.8189 51.6673 72.9606 51.0542 73.2597 50.5669C73.3699 50.4097 73.4801 50.2525 73.6217 50.1268C74.582 49.2465 76.1878 49.2465 77.1166 50.1582C77.2583 50.2997 77.3685 50.4412 77.4629 50.5984C77.6046 50.5669 77.7463 50.5512 77.888 50.5512C78.3602 50.5355 78.801 50.7084 79.1474 50.9914C79.5724 50.787 80.0919 50.7713 80.5327 50.9599C80.8948 51.1171 81.1467 51.3372 81.3671 51.6516C81.493 51.8088 81.5875 51.9817 81.6662 52.1703C82.3431 52.186 83.0043 52.5004 83.4608 53.0034C83.8229 53.4121 84.0433 53.8837 84.122 54.3867C85.4916 54.4811 86.5621 55.7229 86.3574 57.1062C86.3574 57.4049 86.2472 57.6878 86.0898 57.955Z" fill="#F2F2F2"/>
<path d="M86.0905 57.9552C85.9174 57.9709 85.7442 57.9866 85.571 57.9866C84.5793 57.9709 83.5403 57.5779 82.8791 56.8548C82.517 56.9648 82.1549 57.0434 81.8086 57.0749C80.5334 57.1692 79.4 56.4775 78.9749 55.4401C77.4636 55.5186 76.1255 54.434 75.9996 52.9249C75.7005 52.9407 75.3856 52.9249 75.1022 52.8621C73.9845 52.6734 73.1816 51.6517 73.2761 50.5513C73.3863 50.3941 73.4965 50.2369 73.6382 50.1112C74.5985 49.2309 76.2042 49.2309 77.133 50.1426C77.2747 50.2841 77.3849 50.4256 77.4794 50.5828C77.621 50.5513 77.7627 50.5356 77.9044 50.5356C78.3767 50.5199 78.8175 50.6928 79.1638 50.9757C79.5889 50.7714 80.1084 50.7557 80.5492 50.9443C80.9112 51.1015 81.1631 51.3216 81.3835 51.636C81.5095 51.7931 81.6039 51.9661 81.6826 52.1547C82.3596 52.1704 83.0208 52.4848 83.4773 52.9878C83.8394 53.3965 84.0598 53.8681 84.1385 54.3711C85.5081 54.4654 86.5786 55.7073 86.3739 57.0906C86.3582 57.405 86.248 57.6879 86.0905 57.9552Z" fill="white"/>
<path d="M75.9841 50.7714C75.7008 50.4571 75.2285 50.3627 74.8506 50.5514C74.7719 50.5828 74.7562 50.6928 74.7877 50.7714C74.8349 50.85 74.9294 50.8658 75.0081 50.8343C75.26 50.7086 75.5906 50.7872 75.7637 51.0072C75.9526 51.2273 75.9369 51.5731 75.7795 51.7932C75.7322 51.8561 75.7637 51.9661 75.8424 52.0133C75.9212 52.0604 76.0156 52.029 76.0628 51.9504C76.299 51.6046 76.2675 51.1016 75.9841 50.7714Z" fill="#F2F2F2"/>
<path d="M78.863 53.585C78.8158 53.6636 78.6741 53.6951 78.5797 53.7108C78.4695 53.7422 78.375 53.7579 78.2648 53.7579C78.0602 53.7579 77.8713 53.6951 77.7138 53.5536C77.4305 53.2549 77.4777 52.7676 77.8083 52.5318C77.8713 52.4847 77.9185 52.3904 77.8713 52.3118C77.8398 52.2489 77.7296 52.2017 77.6509 52.2489C77.1471 52.5947 77.0369 53.3178 77.4777 53.7737C77.6823 53.9937 77.9815 54.0881 78.2806 54.0881C78.438 54.0881 78.5797 54.0566 78.7214 54.0095C78.8788 53.9623 79.0362 53.8994 79.1149 53.7579C79.2409 53.5693 78.9575 53.4121 78.863 53.585Z" fill="#F2F2F2"/>
<path d="M82.8318 55.2828C82.9262 54.7955 82.8475 54.2453 82.4382 53.9152C82.2335 53.7423 81.9659 53.6794 81.714 53.648C81.4936 53.6165 81.2418 53.6008 81.0529 53.7423C80.9899 53.7895 80.9427 53.8838 80.9899 53.9624C81.0214 54.0253 81.1316 54.0724 81.2103 54.0253C81.352 53.9309 81.5094 53.9467 81.6668 53.9624C81.8715 53.9938 82.0919 54.0253 82.2493 54.1667C82.5484 54.4182 82.6114 54.8427 82.5327 55.2042C82.4854 55.4086 82.7845 55.4872 82.8318 55.2828Z" fill="#F2F2F2"/>
<path d="M84.8291 56.4299C84.8291 56.2412 84.8134 56.0683 84.7504 55.8954C84.6874 55.7067 84.593 55.5181 84.4513 55.3924C84.1364 55.1251 83.7271 55.2352 83.3965 55.3766C83.3178 55.4081 83.3021 55.5181 83.3336 55.5967C83.3808 55.6753 83.4753 55.691 83.554 55.6596C83.7744 55.5653 84.0735 55.4552 84.2624 55.6596C84.4513 55.8639 84.53 56.1783 84.5143 56.4456C84.5143 56.6342 84.8291 56.6342 84.8291 56.4299Z" fill="#F2F2F2"/>
<path d="M81.965 56.085C81.7132 56.2265 81.3826 56.2422 81.1307 56.085C80.8789 55.9278 80.7372 55.6291 80.7844 55.3462C80.8001 55.2676 80.9103 55.2204 80.9733 55.2362C81.0678 55.2676 81.0992 55.3462 81.0835 55.4248V55.4405C81.0835 55.4405 81.0835 55.4405 81.0835 55.4562C81.0835 55.4719 81.0835 55.4719 81.0835 55.4877C81.0835 55.5034 81.0835 55.5191 81.0835 55.5191V55.5348C81.0835 55.5663 81.0992 55.582 81.0992 55.6134C81.0992 55.5977 81.0992 55.6134 81.0992 55.6134C81.0992 55.6291 81.115 55.6291 81.115 55.6449C81.115 55.6606 81.1307 55.6606 81.1307 55.6763L81.1465 55.692L81.1622 55.7077C81.1622 55.7234 81.1779 55.7235 81.1779 55.7235C81.1937 55.7392 81.1937 55.7392 81.2094 55.7549L81.2252 55.7706C81.2409 55.7863 81.2567 55.802 81.2724 55.802C81.2881 55.802 81.2882 55.8178 81.3039 55.8178C81.3039 55.8178 81.3196 55.8178 81.3196 55.8335C81.3354 55.8492 81.3669 55.8492 81.3826 55.8492C81.3983 55.8492 81.4141 55.8492 81.4298 55.8649H81.4456C81.477 55.8649 81.4928 55.8649 81.5243 55.8649C81.5715 55.8649 81.603 55.8649 81.6502 55.8492C81.6974 55.8335 81.7132 55.8335 81.7762 55.802C81.8549 55.7549 81.9493 55.7863 81.9965 55.8649C82.0595 55.9435 82.0438 56.0535 81.965 56.085Z" fill="#F2F2F2"/>
<path d="M80.2326 102.471C79.5084 104.295 78.5954 106.024 77.5249 107.659C71.5112 116.76 60.3341 122.639 49.1254 122.105C35.9174 121.46 23.6697 111.903 20.2221 99.5476C19.1044 95.5706 18.9312 91.3892 19.5924 87.3336C19.8758 85.5259 20.3323 83.7496 20.9305 82.0047C22.9613 76.1571 26.7238 70.844 31.7929 67.1185C42.1829 59.4946 57.5004 59.3059 68.3313 66.2225C68.835 66.5526 69.3388 66.8827 69.8111 67.2442C70.0629 67.4171 70.3148 67.6058 70.5509 67.8101C77.8712 73.532 82.0587 82.6021 82.1689 91.6564C82.2319 95.3348 81.6022 99.0131 80.2326 102.471Z" fill="white"/>
<path d="M69.8143 67.2289C68.9328 68.6908 67.7836 69.9955 66.4769 71.0958C63.8951 73.2494 60.7309 74.6327 57.4722 75.4344C54.1978 76.2361 50.8289 76.5033 47.4757 76.6291C44.8152 76.7391 42.1232 76.6133 39.4628 76.5505C39.2424 79.1599 38.896 81.7693 38.0774 84.253C37.2588 86.7366 35.9522 89.0945 34.0158 90.8551C33.0556 91.7354 31.9221 92.4742 30.6627 92.7886C28.1439 93.4173 25.4991 92.3013 23.3896 90.8079C21.9886 89.8176 20.7134 88.6387 19.5957 87.3339C20.8551 79.4428 25.2158 71.9604 31.7962 67.1346C42.1862 59.5107 57.5037 59.322 68.3345 66.2386C68.8383 66.5372 69.3263 66.8673 69.8143 67.2289Z" fill="#F2F2F2"/>
<path d="M70.5219 112.658C64.7287 114.764 58.3058 115.896 52.1504 116.1C46.5304 116.289 40.3121 115.77 35.3689 112.862C30.2526 109.86 26.0651 104.908 23.8769 99.4379C22.7277 96.577 22.2711 93.5431 21.8776 90.4936C21.5312 87.8213 21.2479 85.2433 21.5155 82.6025C21.3266 82.3824 21.1377 82.1938 20.933 82.0051C20.3348 83.7343 19.8783 85.5263 19.5949 87.334C18.9495 91.3896 19.1226 95.5709 20.2246 99.5479C23.6722 111.903 35.9042 121.461 49.1279 122.105C59.0771 122.593 68.9949 118.002 75.3077 110.599C73.7649 111.369 72.1749 112.045 70.5219 112.658Z" fill="#F2F2F2"/>
<path d="M67.529 47.4849C67.5605 49.9057 67.1512 52.3265 66.2539 54.6058C63.1526 62.4655 54.4942 67.9359 45.8043 67.5114C37.1145 67.087 29.07 60.7993 26.8031 52.6723C26.5985 51.9492 26.441 51.2261 26.3466 50.4873C25.6382 45.7558 26.8031 40.8199 29.4006 36.7486C30.723 34.6736 32.4074 32.8187 34.4225 31.3568C41.2547 26.3423 51.33 26.2166 58.4456 30.7595C58.9493 31.0896 59.4374 31.4197 59.9096 31.797C60.0198 31.8913 60.13 31.9699 60.2402 32.0642C64.475 35.5225 67.0252 40.7099 67.4818 46.0545C67.4975 46.526 67.5133 46.9976 67.529 47.4849Z" fill="white"/>
<path d="M60.2098 32.0642C59.0606 32.9288 57.8957 33.7776 56.6048 34.4378C53.598 35.9941 50.355 36.9058 47.0176 37.3774C43.5228 37.8804 39.9177 38.1633 36.3757 37.9904C33.9513 37.8804 31.6214 37.456 29.3545 36.7486C30.6769 34.6736 32.3613 32.8187 34.3764 31.3568C41.2086 26.3423 51.2838 26.2166 58.3994 30.7595C58.9032 31.0896 59.3912 31.4197 59.8635 31.797C59.9894 31.8756 60.0996 31.9699 60.2098 32.0642Z" fill="#F2F2F2"/>
<path d="M27.1201 53.7568C29.7806 61.3493 37.4787 67.1026 45.775 67.5113C54.087 67.92 62.3833 62.9213 65.7995 55.596C55.677 65.8765 35.3062 65.6407 27.1201 53.7568Z" fill="#F2F2F2"/>
<path d="M17.357 72.4172C17.3098 72.2286 17.1209 72.1343 16.932 72.1815C16.1291 72.3544 15.3262 72.5273 14.5391 72.7002C14.3659 72.7473 14.2557 72.9517 14.303 73.1246C14.3502 73.3132 14.5391 73.4075 14.728 73.3604C15.5309 73.1875 16.3337 73.0145 17.1209 72.8416C17.294 72.8102 17.4042 72.5901 17.357 72.4172Z" fill="#F7931E"/>
<path d="M17.4851 73.5962C17.3907 73.4233 17.186 73.3919 17.0128 73.4705C16.3044 73.8163 15.5803 74.1307 14.8561 74.4294C14.683 74.4923 14.557 74.6495 14.62 74.8538C14.6672 75.011 14.8719 75.1682 15.045 75.0896C15.8322 74.7752 16.6035 74.4294 17.3749 74.0521C17.5324 73.9735 17.5796 73.7377 17.4851 73.5962Z" fill="#F7931E"/>
<path d="M18.4436 74.7127C18.3964 74.5398 18.1917 74.414 18.0185 74.4769C17.1055 74.7913 16.2711 75.2629 15.5155 75.8602C15.3738 75.9702 15.3895 76.2218 15.5155 76.3475C15.6572 76.489 15.8618 76.4575 16.0035 76.3475C16.6489 75.8288 17.4203 75.4043 18.2074 75.1371C18.3806 75.0742 18.4908 74.9013 18.4436 74.7127Z" fill="#F7931E"/>
<path d="M19.1687 75.3723C19.027 75.2308 18.8381 75.2465 18.6807 75.3723C18.0353 75.9067 17.4213 76.4412 16.8073 77.0071C16.6814 77.1329 16.6814 77.3686 16.8073 77.4944C16.949 77.6202 17.1537 77.6202 17.2954 77.4944C17.9093 76.9285 18.539 76.394 19.1687 75.8596C19.3104 75.7495 19.2947 75.498 19.1687 75.3723Z" fill="#F7931E"/>
<path d="M20.2073 76.5668C20.0656 76.4411 19.8609 76.4254 19.7192 76.5668C19.184 77.1013 18.633 77.62 18.0663 78.1231C17.9246 78.2488 17.9403 78.4846 18.0663 78.6104C18.2079 78.7361 18.4126 78.7361 18.5543 78.6104C19.121 78.1073 19.672 77.5886 20.2073 77.0541C20.3332 76.9284 20.3489 76.6926 20.2073 76.5668Z" fill="#F7931E"/>
<path d="M21.3391 77.3377C21.1974 77.212 20.9928 77.212 20.8511 77.3377C20.1742 77.9351 19.5445 78.5953 18.962 79.3027C18.8518 79.4442 18.8203 79.6485 18.962 79.79C19.0879 79.9 19.3241 79.9315 19.45 79.79C20.0168 79.0826 20.6465 78.4224 21.3391 77.825C21.4651 77.6993 21.4651 77.4478 21.3391 77.3377Z" fill="#F7931E"/>
<path d="M22.2229 78.3125C22.0655 78.171 21.8923 78.1867 21.7349 78.3125C21.0737 78.8312 20.4283 79.3814 19.7986 79.963C19.6726 80.0888 19.6726 80.3245 19.7986 80.4503C19.9402 80.5761 20.1449 80.5761 20.2866 80.4503C20.9163 79.8687 21.546 79.3185 22.2229 78.7998C22.3646 78.6897 22.3489 78.4382 22.2229 78.3125Z" fill="#F7931E"/>
<path d="M23.4666 78.7209C23.3406 78.5951 23.1202 78.5794 22.9786 78.7209C22.4433 79.2868 21.9395 79.8842 21.483 80.5129C21.3728 80.6544 21.4515 80.9059 21.609 80.9845C21.7821 81.0789 21.971 81.016 22.0812 80.8588C22.1442 80.7802 22.1914 80.7173 22.2544 80.6387C22.2701 80.623 22.2859 80.6073 22.3016 80.5915C22.3331 80.5601 22.3646 80.5129 22.3961 80.4815C22.5063 80.34 22.6322 80.1986 22.7424 80.0571C22.9786 79.7741 23.2304 79.4912 23.4823 79.2239C23.5925 79.0667 23.6083 78.8467 23.4666 78.7209Z" fill="#F7931E"/>
<path d="M21.5758 82.1944C21.5286 82.0215 21.324 81.8957 21.1508 81.9586C20.3637 82.2258 19.5608 82.4459 18.7579 82.6188C18.569 82.6502 18.4746 82.8703 18.5218 83.0432C18.569 83.2318 18.7579 83.3261 18.9468 83.279C19.7655 83.1061 20.5526 82.886 21.3397 82.6188C21.5129 82.5559 21.6388 82.383 21.5758 82.1944Z" fill="#F7931E"/>
<path d="M21.8607 83.5148C21.7662 83.3576 21.5616 83.2947 21.3884 83.389C20.6485 83.7977 19.9558 84.285 19.3104 84.8195C19.1687 84.9295 19.1845 85.181 19.3104 85.3068C19.4521 85.4483 19.641 85.4325 19.7984 85.3068C19.8771 85.2439 19.9558 85.181 20.0346 85.1181C20.1133 85.0553 20.1448 85.0395 20.2235 84.9767C20.3809 84.8509 20.5541 84.7409 20.7272 84.6151C21.0578 84.3951 21.4042 84.175 21.7505 83.9864C21.8922 83.8921 21.9552 83.6563 21.8607 83.5148Z" fill="#F7931E"/>
<path d="M22.5043 84.7252C22.3311 84.6309 22.1579 84.6938 22.032 84.851C22.0792 84.7881 22.0163 84.8667 22.0163 84.8824C22.0005 84.8981 21.9848 84.9296 21.9533 84.9453C21.9218 84.9925 21.8746 85.0239 21.8431 85.071C21.7644 85.1496 21.6857 85.244 21.5912 85.3225C21.4181 85.4797 21.2449 85.6369 21.056 85.7784C20.6939 86.0928 20.3476 86.4386 20.0957 86.8473C20.0012 87.0045 20.0485 87.2246 20.2216 87.3189C20.379 87.4132 20.5994 87.366 20.6939 87.1931C20.7254 87.146 20.7569 87.0831 20.7883 87.0359C20.8041 87.0045 20.8198 86.9888 20.8356 86.9573C20.8356 86.9573 20.8671 86.9259 20.8671 86.9102C20.8828 86.8945 20.8985 86.8787 20.8985 86.863C20.9143 86.8473 20.93 86.8316 20.9458 86.8001C20.993 86.753 21.0245 86.7058 21.0717 86.6744C21.2291 86.5015 21.4023 86.36 21.5912 86.2028C21.969 85.8884 22.3311 85.5741 22.6302 85.1811C22.7404 85.0553 22.646 84.8038 22.5043 84.7252Z" fill="#F7931E"/>
<path d="M23.2131 86.0927C23.0242 86.0456 22.851 86.1556 22.788 86.3285C22.7566 86.4071 22.7408 86.47 22.6779 86.5643C22.6306 86.6429 22.5519 86.7529 22.5047 86.8158C22.3787 86.973 22.2213 87.1617 22.0639 87.3188C21.749 87.6804 21.4185 88.0262 21.0721 88.3563C20.9462 88.4821 20.9304 88.7179 21.0721 88.8436C21.2138 88.9694 21.4185 88.9694 21.5601 88.8436C21.9222 88.4978 22.2686 88.1205 22.6149 87.7433C22.9455 87.366 23.2918 86.9887 23.4492 86.5014C23.4965 86.3442 23.3863 86.1242 23.2131 86.0927Z" fill="#F7931E"/>
<path d="M24.157 87.4606C23.6847 88.2623 23.0078 88.9225 22.5985 89.7556C22.5197 89.9128 22.5512 90.1329 22.7244 90.2272C22.8818 90.3215 23.1022 90.2744 23.1967 90.1015C23.6217 89.2683 24.2987 88.6081 24.7552 87.8064C24.9756 87.4292 24.3774 87.0834 24.157 87.4606Z" fill="#F7931E"/>
<path d="M25.8112 88.56C25.6852 88.4343 25.4491 88.4185 25.3232 88.56C24.9926 88.9687 24.6935 89.3931 24.4258 89.8333C24.2999 90.0376 24.1897 90.2577 24.0638 90.4777C23.9378 90.7293 23.7174 91.0908 23.985 91.3266C24.1267 91.4523 24.3314 91.4681 24.4731 91.3266C24.5518 91.248 24.5833 91.1222 24.5675 91.0122C24.5833 90.965 24.599 90.9336 24.6305 90.8865C24.6777 90.7921 24.7249 90.6978 24.7879 90.6035C24.8824 90.4149 24.9926 90.2262 25.1028 90.0533C25.3232 89.7075 25.5593 89.346 25.8112 89.0316C25.9214 88.8901 25.9529 88.7015 25.8112 88.56Z" fill="#F7931E"/>
<path d="M27.1509 89.1894C26.9619 89.1423 26.7888 89.2523 26.7258 89.4252C26.4582 90.1797 26.0331 90.9342 25.5294 91.563C25.4192 91.7045 25.3877 91.9088 25.5294 92.0503C25.6553 92.176 25.8915 92.1918 26.0174 92.0503C26.5999 91.3115 27.0564 90.4941 27.387 89.5981C27.45 89.4409 27.324 89.2366 27.1509 89.1894Z" fill="#F7931E"/>
<path d="M28.4881 90.0378C28.315 89.9906 28.1103 90.1007 28.0631 90.2736C27.8899 91.0596 27.638 91.8298 27.3074 92.5529C27.2287 92.7258 27.2602 92.9145 27.4334 93.0245C27.5751 93.1031 27.8269 93.0717 27.9056 92.8988C28.2677 92.1128 28.5511 91.2954 28.74 90.4622C28.7715 90.2736 28.677 90.085 28.4881 90.0378Z" fill="#F7931E"/>
<path d="M33.9026 63.9447C37.3502 65.4224 41.0339 66.3184 45.2214 66.3498C49.1728 66.3812 53.0297 65.1866 56.7922 64.0705C59.3897 63.3002 61.1529 62.1056 62.6799 60.3293C62.9318 60.3135 63.1837 60.3293 63.4198 60.345C63.53 60.3607 63.6402 60.3764 63.7504 60.4079C63.7661 60.4079 63.7976 60.4236 63.8134 60.4236C65.7025 60.8794 66.3794 63.0016 66.3637 64.6521C66.3479 66.5227 65.4978 68.189 64.1912 69.5094C64.0495 69.6509 63.9078 69.7924 63.7504 69.9338C63.4985 70.1539 63.2309 70.374 62.9475 70.5783C61.9872 71.2857 60.9167 71.8359 59.8148 72.3075C59.5629 72.4175 59.311 72.5118 59.0749 72.6219C58.9332 72.6847 58.7758 72.7319 58.6341 72.7948C57.6108 73.172 56.5718 73.5179 55.5171 73.8008C55.1865 73.8951 54.8401 73.9737 54.5095 74.0523C53.2186 74.351 51.8963 74.5711 50.5739 74.7125C50.2118 74.7597 49.8497 74.7911 49.4877 74.8069C47.9606 74.9169 46.4179 74.9326 44.8751 74.8383C44.5288 74.8226 44.1667 74.7911 43.8203 74.7597C42.6082 74.6339 41.396 74.461 40.1838 74.2095C39.8847 74.1466 39.5699 74.068 39.2708 74.0052C39.255 74.0052 39.2393 73.9895 39.2235 73.9895C37.2242 73.5021 35.2879 72.8262 33.4145 71.9616C32.4542 71.5058 31.4782 70.987 30.8328 70.1539C30.2031 69.3365 30.0141 68.3619 30.1243 67.403C30.1873 66.8685 30.329 66.3498 30.5494 65.8625C31.5569 65.0294 32.6431 64.4006 33.9026 63.9447Z" fill="#A3021D"/>
<path d="M62.6484 60.3607C62.6642 60.345 62.6642 60.345 62.6799 60.3293C62.9318 60.3135 63.1837 60.3293 63.4198 60.345C63.5615 60.3607 63.6874 60.3921 63.8134 60.4236C65.7654 62.8129 65.2459 66.397 64.2069 69.5094C64.0652 69.6509 63.9236 69.7923 63.7661 69.9338C63.5143 70.1539 63.2466 70.374 62.9633 70.5783C64.3014 67.2615 65.4506 62.7972 62.6484 60.3607Z" fill="#E8698A"/>
<path d="M60.6802 67.1195C60.7432 65.579 60.4441 64.1171 59.9088 62.7181C60.145 62.5766 60.3811 62.4194 60.6015 62.2622C61.2154 63.8184 61.5775 65.4847 61.4673 67.1981C61.3571 69.0372 60.6802 70.7349 59.8301 72.3226C59.5782 72.4326 59.3263 72.5269 59.0902 72.637C58.9485 72.6998 58.7911 72.747 58.6494 72.8099C59.7042 71.0336 60.5857 69.163 60.6802 67.1195Z" fill="#E8698A"/>
<path d="M56.2256 64.2431C56.4145 64.1802 56.6034 64.1331 56.7923 64.0702C56.8553 64.0545 56.934 64.023 56.997 64.0073C58.036 67.3556 57.0599 70.6881 55.5329 73.7848C55.2023 73.8791 54.856 73.9577 54.5254 74.0363C56.1311 70.9553 57.2489 67.6071 56.2256 64.2431Z" fill="#E8698A"/>
<path d="M52.1486 65.3909C52.4163 65.328 52.6681 65.2651 52.9358 65.1865C53.1876 68.5976 52.5422 72.0087 50.5901 74.6967C50.2281 74.7439 49.866 74.7753 49.5039 74.791C51.6606 72.2288 52.369 68.8177 52.1486 65.3909Z" fill="#E8698A"/>
<path d="M47.4578 66.2397C47.7254 66.2083 47.9931 66.1926 48.2607 66.1611C48.1977 69.1006 46.9541 72.5431 44.876 74.8224C44.5297 74.8067 44.1676 74.7753 43.8213 74.7438C45.9938 72.6532 47.3634 69.1478 47.4578 66.2397Z" fill="#E8698A"/>
<path d="M43.6153 66.3031C43.0801 69.2112 42.1355 72.0406 40.1992 74.1942C39.9001 74.1313 39.5852 74.0527 39.2861 73.9898C41.3169 71.9306 42.2772 69.1326 42.8282 66.2402C43.0801 66.256 43.3477 66.2874 43.6153 66.3031Z" fill="#E8698A"/>
<path opacity="0.5" d="M33.9034 63.9447C37.351 65.4224 41.0348 66.3184 45.2223 66.3498C49.1736 66.3812 53.0306 65.1866 56.793 64.0705C59.3905 63.3002 61.1537 62.1056 62.6807 60.3293C62.9326 60.3135 63.1845 60.3293 63.4206 60.345C63.5308 60.3607 63.641 60.3764 63.7512 60.4079C62.4603 66.2869 55.6123 68.3462 50.2599 69.5251C47.2058 70.2011 43.2545 69.6352 40.8459 71.9302C40.2319 72.5275 39.6967 73.2192 39.2401 73.958C37.2408 73.4707 35.3045 72.7948 33.4311 71.9302C32.4708 71.4743 31.4948 70.9556 30.8494 70.1225C30.2197 69.3051 30.0307 68.3304 30.1409 67.3716C30.2039 66.8371 30.3456 66.3184 30.566 65.8311C31.5578 65.0294 32.644 64.4006 33.9034 63.9447Z" fill="#8E0321"/>
<path d="M16.2717 73.5483C16.3819 73.7526 16.5235 73.9413 16.681 74.1299C16.9171 74.4129 17.169 74.6644 17.4209 74.9316C17.4838 74.9945 17.5311 75.0416 17.594 75.1045C17.6413 75.1517 17.6885 75.1988 17.7357 75.246C18.6645 76.2363 19.6563 77.1638 20.711 78.0283C20.9472 78.217 21.1676 78.3899 21.4195 78.5628C21.7028 78.7671 22.0019 78.9558 22.3168 79.0972C22.4742 79.1758 22.6316 79.2387 22.7891 79.2859C24.0485 79.6946 25.2291 79.2387 26.2996 78.4842C26.5358 78.3113 26.7562 78.1384 26.9766 77.9497C27.6378 77.3838 28.236 76.7236 28.724 76.1734C29.1648 75.6861 29.5741 75.1988 29.9834 74.6958C30.188 74.4443 30.3927 74.1928 30.5816 73.9413C31.2743 73.0453 31.9512 72.1335 32.6281 71.2375C32.6596 71.1904 32.6911 71.1432 32.7383 71.0961C32.943 70.8288 33.1476 70.5616 33.3523 70.2944C33.856 69.6341 34.3756 69.0054 34.8951 68.3609C35.0682 68.1565 35.2414 67.9364 35.4146 67.7321C35.509 67.6063 35.6035 67.4963 35.6979 67.3705C36.0443 66.9147 36.3748 66.4431 36.7842 66.0501C37.162 65.6571 38.1065 65.327 38.1695 64.8554C38.2325 64.3839 38.1065 64.038 37.8704 63.7708C37.5083 63.3621 36.8786 63.1577 36.2804 63.0791C36.1859 63.0634 36.0915 63.0634 35.997 63.0477C35.8239 63.032 35.635 63.032 35.4618 63.032C34.5487 63.032 33.6514 63.2363 32.7698 63.5507C32.5022 63.645 32.2188 63.7551 31.9512 63.8808C31.0224 64.3053 30.1251 64.824 29.275 65.3742C29.0074 65.5471 28.7397 65.72 28.4878 65.8929C28.4406 65.9244 28.3777 65.9558 28.3304 66.003C27.3544 66.6632 26.3784 67.3705 25.3708 68.0308C25.119 68.2037 24.8513 68.3766 24.5837 68.5338C23.5919 69.1626 22.5687 69.7285 21.4667 70.1529C21.1991 70.2629 20.9314 70.3572 20.6638 70.4358C20.4592 70.4987 20.2703 70.5616 20.0656 70.6088C19.3572 70.7974 18.5858 70.8603 17.8617 71.0332C17.5783 71.1118 17.2949 71.1904 17.0273 71.3318C17.0116 71.3476 16.9958 71.3476 16.9801 71.3633C16.8856 71.4104 16.7754 71.4733 16.681 71.5519C16.3976 71.7563 16.1772 72.0235 16.0827 72.3536C15.9568 72.7309 16.067 73.171 16.2717 73.5483Z" fill="#A50024"/>
<path d="M34.8795 68.3451C35.0527 68.1407 35.2259 67.9207 35.399 67.7163C35.4935 67.5906 35.5879 67.4805 35.6824 67.3548C35.7139 65.8929 35.8556 64.4467 36.2649 63.0476C36.1704 63.0319 36.076 63.0319 35.9815 63.0162C35.8083 63.0005 35.6194 63.0005 35.4463 63.0005C34.9582 64.7453 34.8638 66.5374 34.8795 68.3451Z" fill="#D83962"/>
<path d="M31.9345 63.8653C31.8401 66.3175 32.1077 68.7225 32.7217 71.0961C32.9263 70.8289 33.131 70.5617 33.3356 70.2945C32.8161 68.078 32.6272 65.8302 32.7531 63.5352C32.4698 63.6295 32.2022 63.7395 31.9345 63.8653Z" fill="#D83962"/>
<path d="M28.4697 65.8613C28.5484 68.8794 29.0365 71.819 29.9495 74.6957C30.1542 74.4441 30.3588 74.1926 30.5477 73.9411C29.6976 71.143 29.2726 68.2664 29.2411 65.3425C28.9892 65.5154 28.7373 65.6884 28.4697 65.8613Z" fill="#D83962"/>
<path d="M24.5811 68.5017C24.6913 71.8971 25.321 75.2139 26.2812 78.4678C26.5174 78.2949 26.7378 78.122 26.9582 77.9333C26.0136 74.6951 25.4154 71.3626 25.3682 67.9829C25.1006 68.1715 24.8329 68.3445 24.5811 68.5017Z" fill="#D83962"/>
<path d="M20.6641 70.4193C20.6798 73.1545 20.9159 75.874 21.404 78.5463C21.6873 78.7506 21.9864 78.9393 22.3013 79.0807C21.7346 76.1255 21.4512 73.1388 21.4512 70.1206C21.1993 70.2464 20.9317 70.3407 20.6641 70.4193Z" fill="#D83962"/>
<path d="M17.0259 71.3164C16.9 72.2438 16.774 73.187 16.6953 74.1301C16.9314 74.4131 17.1833 74.6646 17.4352 74.9318C17.4509 74.7903 17.4509 74.6332 17.4667 74.4917C17.5454 73.3285 17.7186 72.181 17.876 71.0334C17.5769 71.0963 17.2935 71.1906 17.0259 71.3164Z" fill="#D83962"/>
<path opacity="0.5" d="M17.7344 75.231C18.6632 76.2213 19.655 77.1487 20.7097 78.0133C20.9458 78.2019 21.1662 78.3749 21.4181 78.5478C21.7015 78.7521 22.0006 78.9407 22.3154 79.0822C22.4729 79.1608 22.6303 79.2237 22.7877 79.2709C24.0471 79.6796 25.2278 79.2237 26.2983 78.4692C26.5344 78.2963 26.7548 78.1233 26.9752 77.9347C27.6364 77.3688 28.2346 76.7086 28.7226 76.1584C29.1634 75.6711 29.5727 75.1838 29.982 74.6808C30.1867 74.4293 30.3913 74.1778 30.5803 73.9263C31.2729 73.0303 31.9499 72.1186 32.6268 71.2225C32.6583 71.1754 32.6898 71.1282 32.737 71.0811C32.9416 70.8138 33.1463 70.5466 33.3509 70.2794C33.8547 69.6192 34.3742 68.9904 34.8937 68.3459C35.0669 68.1416 35.24 67.9215 35.4132 67.7171C35.5077 67.5914 35.6021 67.4813 35.6966 67.3556C36.0429 66.8997 36.3735 66.4281 36.7828 66.0352C37.1606 65.6422 38.1052 65.3121 38.1681 64.8405C38.2311 64.3689 38.1052 64.0231 37.869 63.7559C36.1846 64.1488 34.752 64.9505 33.4926 66.3653C32.3434 67.6543 31.4933 69.1476 30.4071 70.468C27.3373 74.2092 22.3469 76.1427 17.7344 75.231Z" fill="#930329"/>
<path d="M20.9623 84.6305C21.0252 84.7248 21.0882 84.8348 21.1512 84.9291C21.3873 85.3064 21.6392 85.6994 21.9068 86.0766C22.8356 87.4442 23.8904 88.7646 25.1183 89.6921C25.3859 89.8964 25.6535 90.0694 25.9369 90.2265C26.2518 90.3995 26.5823 90.5409 26.8972 90.6352C27.1806 90.7296 27.4797 90.7767 27.7788 90.7924C28.8335 90.871 29.904 90.5252 30.8486 89.7393C31.2421 89.4091 31.62 89.0476 31.982 88.6546C32.1709 88.4503 32.3599 88.2459 32.533 88.0101C33.4303 86.9098 34.186 85.6208 34.8314 84.2689C34.9731 83.9545 35.1148 83.6559 35.2407 83.3415C35.6658 82.3512 36.0436 81.3294 36.3742 80.3076C36.6261 79.5217 36.8622 78.7357 37.0984 77.934C37.2085 77.5725 37.303 77.1952 37.4132 76.8337C37.854 75.356 38.2633 73.8627 38.7671 72.4165C38.893 72.055 39.0189 71.7091 39.1449 71.3633C39.381 70.7345 39.6329 70.1215 39.9005 69.5241C40.0894 69.0997 40.2941 68.6439 40.4987 68.2352C40.6404 67.9522 40.7978 67.6693 40.971 67.4335C41.3961 66.8204 41.9156 66.3646 42.6082 66.2702C42.3249 65.8301 41.9943 65.4371 41.6007 65.1227C41.1757 64.7612 40.7034 64.4625 40.1839 64.2739C39.932 64.1796 39.6644 64.101 39.3968 64.0381C38.7671 63.8966 38.1059 63.8809 37.4604 64.0067C37.1928 64.0538 36.9252 64.1324 36.6576 64.2267C36.1381 64.4154 35.6343 64.6983 35.1778 65.0756C34.9889 65.2328 34.8157 65.39 34.6583 65.5629C34.3592 65.8615 34.1073 66.1916 33.8396 66.5375C33.0525 67.6064 32.4386 68.8482 31.7616 69.9957C31.7616 69.9957 31.7616 69.9957 31.7616 70.0115C31.5098 70.4359 31.2579 70.8603 31.006 71.2847C30.2976 72.448 29.5892 73.6112 28.865 74.7587C28.6131 75.1517 28.3613 75.5447 28.1094 75.9377C28.0779 75.9691 28.0621 76.0162 28.0307 76.0477C27.3695 77.0694 26.6138 77.8554 25.7637 78.5156C25.5119 78.72 25.2442 78.9086 24.9609 79.0815C24.1737 79.6003 23.3236 80.0404 22.4578 80.4491C22.3948 80.4805 22.3161 80.512 22.2532 80.5434C22.0013 80.6535 21.7809 80.7949 21.5762 80.9364C21.2614 81.1565 21.0095 81.408 20.8206 81.6909C20.2696 82.4769 20.2539 83.5144 20.9623 84.6305Z" fill="#BD1A2F"/>
<path d="M39.3962 64.0393C39.3647 65.5169 39.7897 66.9317 40.4824 68.2521C40.6241 67.9692 40.7815 67.6862 40.9547 67.4504C40.4824 66.4444 40.1833 65.3912 40.1833 64.2751C39.9314 64.1808 39.6638 64.0865 39.3962 64.0393Z" fill="#E04869"/>
<path d="M36.6572 64.2117C36.7202 67.0883 37.4286 69.8864 38.7352 72.4329C38.8612 72.0714 38.9871 71.7256 39.1131 71.3797C38.0426 69.069 37.4758 66.5696 37.4444 64.0073C37.1925 64.0545 36.9248 64.1174 36.6572 64.2117Z" fill="#E04869"/>
<path d="M33.8408 66.5222C33.888 70.5621 35.1317 74.4133 37.0838 77.9502C37.194 77.5887 37.2884 77.2114 37.3986 76.8498C35.5882 73.3444 34.5178 69.5403 34.6594 65.5476C34.3603 65.8463 34.0927 66.1764 33.8408 66.5222Z" fill="#E04869"/>
<path d="M30.9902 71.2706C31.1004 73.6599 31.6514 76.0336 32.3598 78.3443C32.9895 80.4036 33.7924 82.4156 34.8156 84.2862C34.9573 83.9719 35.099 83.6732 35.2249 83.3588C34.548 82.0541 33.9813 80.6865 33.509 79.2875C32.5015 76.3322 31.6829 73.1412 31.7616 69.9973C31.494 70.4217 31.2421 70.8462 30.9902 71.2706Z" fill="#E04869"/>
<path d="M28.0947 75.907C28.2994 80.3399 29.8894 84.6156 31.9674 88.6712C32.1563 88.4668 32.3452 88.2625 32.5184 88.0267C30.3774 83.8139 28.8031 79.3495 28.8504 74.728C28.5985 75.1367 28.3466 75.5297 28.0947 75.907Z" fill="#E04869"/>
<path d="M24.9777 79.067C24.8989 82.4781 25.6074 85.9049 26.5047 89.2531C26.6306 89.7247 26.7566 90.1963 26.8982 90.6522C27.1816 90.7465 27.4807 90.7936 27.7798 90.8094C27.7168 90.605 27.6539 90.3849 27.5909 90.1649C26.5047 86.4079 25.5759 82.4152 25.7805 78.4854C25.5129 78.7054 25.2453 78.8941 24.9777 79.067Z" fill="#E04869"/>
<path d="M21.1523 84.9296C21.3885 85.3069 21.6404 85.6999 21.908 86.0771C21.9552 84.1908 22.1441 82.3045 22.4747 80.4338C22.4117 80.4653 22.333 80.4967 22.2701 80.5282C22.0182 80.6382 21.7978 80.7797 21.5931 80.9211C21.357 82.2573 21.2153 83.5935 21.1523 84.9296Z" fill="#E04869"/>
<path opacity="0.5" d="M25.1182 89.6929C25.3858 89.8972 25.6534 90.0701 25.9368 90.2273C26.2516 90.4002 26.5822 90.5417 26.8971 90.636C27.1804 90.7303 27.4795 90.7775 27.7787 90.7932C28.8334 90.8718 29.9039 90.526 30.8484 89.74C31.242 89.4099 31.6198 89.0484 31.9819 88.6554C32.1708 88.451 32.3597 88.2467 32.5329 88.0109C33.4302 86.9105 34.1859 85.6216 34.8313 84.2697C34.973 83.9553 35.1147 83.6566 35.2406 83.3423C35.6657 82.3519 36.0435 81.3302 36.3741 80.3084C36.626 79.5225 36.8621 78.7365 37.0982 77.9348C37.2084 77.5733 37.3029 77.196 37.4131 76.8344C37.8539 75.3568 38.2632 73.8635 38.7669 72.4173C38.8929 72.0558 39.0188 71.7099 39.1448 71.3641C39.3809 70.7353 39.6328 70.1223 39.9004 69.525C40.0893 69.1005 40.294 68.6447 40.4986 68.236C40.6403 67.953 40.7977 67.6701 40.9709 67.4343C41.396 66.8212 41.9155 66.3654 42.6081 66.271C42.3248 65.8309 41.9942 65.4379 41.6006 65.1235C39.0503 66.1767 37.6492 68.4718 36.7204 71.1598C35.461 74.7752 34.5007 78.5164 33.0367 82.069C31.6828 85.3543 29.5733 88.4825 25.9683 89.5042C25.6692 89.5671 25.3858 89.6457 25.1182 89.6929Z" fill="#B20F2A"/>
<path d="M49.225 18.4351C49.225 19.3311 49.2092 20.2114 49.1777 21.0917V21.4061C49.1463 22.6007 49.1148 23.8111 49.0676 25.0215C49.0518 25.5717 49.0361 26.1219 49.0046 26.6721C48.9574 27.8825 48.9101 29.0771 48.8629 30.2875L38.3784 31.6394C38.032 30.6176 37.6857 29.6116 37.3394 28.5898C37.2292 28.2754 37.119 27.9453 37.0088 27.6152C36.5207 26.1848 36.0327 24.77 35.5447 23.3396C34.364 19.8656 33.1833 16.4073 31.9869 12.9333C31.1683 10.5125 30.3339 8.10747 29.6413 5.65524C29.5153 5.23082 29.4051 4.82212 29.2949 4.39769C30.8692 3.1087 32.9 2.36989 34.8363 1.80399C37.5283 1.01802 40.2832 0.60932 43.0696 0.593601C44.9902 0.577881 46.8951 0.703636 48.7842 0.939427C49.0046 3.17158 49.0676 5.41945 49.0833 7.68305C49.1305 11.2985 49.2565 14.8668 49.225 18.4351Z" fill="#1A1A1A"/>
<path d="M49.176 21.4216C49.1445 22.6163 49.113 23.8267 49.0658 25.0371C45.1459 26.4204 41.1158 27.6465 37.0228 27.6465C36.5348 26.216 36.0467 24.8013 35.5587 23.3708C34.378 19.8968 33.1973 16.4386 32.0009 12.9646C31.1823 10.5438 30.3479 8.13875 29.6553 5.68652C31.261 6.48821 33.0242 6.89692 34.7716 7.27418C36.0467 10.6696 37.3219 14.0492 38.597 17.4446C38.7859 17.9319 38.9591 18.4192 39.274 18.8436C39.7305 19.4567 40.4074 19.8654 41.1001 20.1798C43.6189 21.3116 46.4053 21.4845 49.176 21.4216Z" fill="black"/>
<path d="M58.7476 27.2226C58.3225 28.433 57.5826 29.5176 56.6695 30.4136C54.072 32.9916 50.3568 34.1234 46.8462 34.8151C42.9893 35.5853 38.9907 35.6954 35.118 35.0037C32.4418 34.5321 28.884 33.8405 27.6561 31.0896C27.1838 30.0049 27.1523 28.7002 27.7191 27.647C28.7423 25.7764 31.513 25.3677 32.9298 27.034C32.127 26.7196 31.1509 26.9554 30.5527 27.5527C30.4897 27.6156 30.4425 27.6785 30.3953 27.7413C30.1749 28.0243 30.0332 28.3701 30.0489 28.7159C30.0962 29.5962 31.0565 30.0993 31.9066 30.3193C34.5356 31.011 36.7553 29.1404 39.0222 27.93C39.337 27.7728 39.6519 27.6156 39.9667 27.4898C41.9031 26.7196 43.9496 26.5938 46.1221 26.4995C48.1843 26.4052 49.9947 27.0025 51.994 27.3484C52.3246 27.4112 52.6867 27.427 53.0645 27.4112C54.4341 27.3326 55.8667 26.6724 55.788 25.0533C55.7565 24.4874 55.2212 23.6229 54.5443 23.7329C53.9303 23.8272 53.6312 24.6918 53.521 25.1948C53.096 24.6603 53.0802 23.8901 53.3794 23.277C53.4266 23.1827 53.4896 23.0727 53.5525 22.9941C54.9536 21.092 57.803 22.1138 58.7476 23.9372C58.8578 24.1416 58.9365 24.346 58.9837 24.566C59.1883 25.462 59.0467 26.3895 58.7476 27.2226Z" fill="#1A1A1A"/>
<path d="M42.5345 27.8664C41.5112 28.6996 40.4879 29.5484 39.3073 30.1457C38.5674 30.523 37.796 30.806 37.0088 31.0732C36.2847 31.3247 35.5605 31.5762 34.8206 31.702C34.0493 31.8277 33.2621 31.812 32.475 31.7177C31.6721 31.6234 30.8535 31.4505 30.1923 30.9789C29.5311 30.5073 29.0746 29.6899 29.2163 28.9039C29.3422 28.2437 29.909 27.6935 30.5702 27.5678C30.5072 27.6306 30.46 27.6935 30.4127 27.7564C30.1923 28.0393 30.0506 28.3852 30.0664 28.731C30.1136 29.6113 31.0739 30.1143 31.924 30.3344C34.553 31.026 36.7727 29.1554 39.0396 27.945C39.3545 27.7878 39.6693 27.6306 39.9842 27.5049C40.8028 27.5835 41.7159 27.725 42.5345 27.8664Z" fill="black"/>
<path d="M47.7121 1.45766C46.925 1.30047 46.1221 1.28475 45.3192 1.28475C43.2255 1.25331 41.1317 1.25331 39.0852 1.53626C36.0469 1.96068 33.1503 3.01388 30.2852 4.06708C31.1825 4.24 32.0168 4.41291 32.9299 4.42863C34.7403 4.46007 36.5507 4.22428 38.3453 3.97277C39.2899 3.84701 40.2344 3.70554 41.1632 3.50118C41.9189 3.32827 42.6588 3.1082 43.3987 2.88813C44.7997 2.4637 46.2953 1.86637 47.7121 1.45766Z" fill="black"/>
<path d="M45.9324 5.29347C45.8222 9.3648 46.0741 13.4361 46.688 17.4603C46.7195 17.6646 46.751 17.869 46.8927 18.0262C47.1131 18.262 47.5224 18.2463 47.7743 18.0419C48.0261 17.8375 48.1363 17.4917 48.1521 17.1773C48.1678 16.8472 48.0891 16.5328 48.0419 16.2184C47.9474 15.684 47.9317 15.1495 47.9159 14.5994C47.79 11.4869 47.7585 8.35875 47.8057 5.24632C47.8057 4.85333 47.8215 4.42891 47.6326 4.08308C47.3964 3.6115 46.8297 3.37571 46.4361 3.75297C45.9953 4.14596 45.9481 4.77473 45.9324 5.29347Z" fill="#282828"/>
<path d="M44.154 29.1409C43.8392 29.2037 43.5086 29.2823 43.2095 29.3767C42.9261 29.471 42.6427 29.6125 42.3751 29.7539C41.6352 30.1469 40.8481 30.4613 40.0767 30.7757C39.6989 30.9172 38.6914 31.4831 39.3368 31.9075C39.6831 32.1433 40.2814 32.0018 40.6749 32.0018C42.7529 32.0018 44.8467 31.8603 46.8932 31.4673C48.924 31.0901 51.0335 30.5399 52.7652 29.3609C53.3634 28.9522 54.0088 28.2763 53.0328 27.9776C52.4661 27.8047 51.8521 27.8519 51.2539 27.7733C50.514 27.6947 49.7741 27.5061 49.0184 27.6633C48.0896 27.8676 47.2553 28.3863 46.3422 28.6379C45.6181 28.8894 44.8782 28.9994 44.154 29.1409Z" fill="#282828"/>
<path d="M57.2215 26.1372C57.1428 26.4516 56.9854 26.7345 56.7807 26.9703C56.4029 27.4105 55.8519 27.662 55.3009 27.8192C54.9231 27.9292 54.5295 27.9764 54.1359 27.8978C53.8368 27.8349 53.5535 27.6777 53.2701 27.5362C53.2071 27.5048 53.1441 27.4734 53.0654 27.4419C54.435 27.3633 55.8676 26.7031 55.7889 25.084C55.7574 24.5181 55.2222 23.6535 54.5452 23.7636C53.9313 23.8579 53.6322 24.7225 53.522 25.2255C53.0969 24.691 53.0812 23.9208 53.3803 23.3077C54.2461 23.0248 55.2379 23.0405 56.0251 23.4963C56.9224 24.0151 57.4891 25.1312 57.2215 26.1372Z" fill="black"/>
<path d="M49.1779 21.1077C49.1622 22.208 49.1307 23.3084 49.0835 24.4087C49.052 25.1633 49.0362 25.9335 49.0048 26.688C48.1704 27.3168 47.2101 27.8198 46.1711 28.15C43.3689 29.046 40.189 29.4232 37.3396 28.6058L35.5449 23.3713C36.0802 23.5285 36.5997 23.6385 37.1349 23.7328C39.3703 24.1415 41.6058 24.0629 43.7468 23.5442C44.282 23.4184 44.8015 23.2612 45.321 23.0726C46.6906 22.6167 47.9815 21.9408 49.1779 21.1077Z" fill="#D10505"/>
<path d="M49.1001 24.4088C49.0686 25.1633 49.0529 25.9336 49.0214 26.6881C48.187 27.3169 47.2267 27.8199 46.1877 28.15C43.3856 29.046 40.2056 29.4233 37.3562 28.6059L35.5615 23.3713C36.0968 23.5285 36.6163 23.6386 37.1515 23.7329C37.246 24.0473 37.3719 24.3459 37.5136 24.6446C37.8442 25.3205 38.348 25.9336 39.0249 26.2637C39.6388 26.5781 40.363 26.6252 41.0557 26.6252C41.6854 26.6252 42.2993 26.5781 42.9133 26.5152C43.2439 26.468 43.5902 26.4209 43.8736 26.2323C44.3459 25.9179 44.5033 25.2734 44.3773 24.7075C44.2829 24.2831 44.0467 23.8901 43.7476 23.56C44.2829 23.4342 44.8024 23.277 45.3219 23.0884C45.4478 23.7643 45.3534 24.5031 45.684 25.1162C45.7627 25.2577 45.8571 25.3834 45.9988 25.4463C46.1563 25.5092 46.3294 25.462 46.4868 25.4148C47.3999 25.1476 48.25 24.7861 49.1001 24.4088Z" fill="#B70000"/>
<path d="M46.7687 27.8669C46.7687 27.804 46.753 27.7411 46.753 27.6782C46.627 26.6722 46.3751 25.6976 46.1547 24.7073C46.0603 24.2986 45.9816 23.9056 45.9186 23.4969C45.8556 23.0725 45.8399 22.2236 45.3361 22.0664C44.8953 21.9249 44.3916 22.2236 43.9823 22.3651C43.1322 22.648 42.2349 22.7581 41.3375 22.8209C41.1801 22.8367 41.007 22.8367 40.8653 22.8995C40.3458 23.1039 40.3773 23.7641 40.4875 24.2986C40.5189 24.4558 40.5504 24.5972 40.5819 24.723C40.7708 25.509 40.9282 26.2949 41.0384 27.0809C41.1644 27.8983 41.1329 28.9201 41.5107 29.6746C41.7469 30.1462 42.1876 30.2248 42.6914 30.1776C43.7776 30.0519 44.8639 29.8004 45.8871 29.3916C46.5798 29.0615 46.8474 28.6214 46.7687 27.8669ZM42.534 28.9515C42.4553 28.6057 42.408 28.2441 42.3766 27.8826C42.3293 27.3796 42.2349 26.8923 42.1404 26.405C42.0302 25.9019 41.9358 25.3832 41.857 24.8802C41.8098 24.5815 41.7626 24.2828 41.7311 23.9842C42.7544 23.9527 43.7619 23.7327 44.7222 23.3554C44.7694 23.6383 44.8166 23.9213 44.8639 24.2042C44.9111 24.4715 44.9583 24.7387 45.0213 25.0059C45.0685 25.1946 45.1157 25.3989 45.163 25.5876C45.2732 26.0434 45.3834 26.515 45.4621 26.9866C45.5093 27.2224 45.5408 27.4582 45.5723 27.694C45.588 27.8354 45.6352 28.0241 45.6352 28.1655C44.6592 28.59 43.573 28.8572 42.534 28.9515Z" fill="#FBB03B"/>
<path d="M45.8713 29.3436C44.8481 29.7523 43.7776 30.0195 42.6756 30.1295C42.1719 30.1924 41.7311 30.1138 41.4949 29.6265C41.1329 28.872 41.1486 27.8659 41.0227 27.0328C40.9125 26.2468 40.7393 25.4609 40.5661 24.6749C40.5347 24.5492 40.5032 24.4077 40.4717 24.2505C40.6291 24.3448 40.8023 24.4391 40.9754 24.5177C41.2588 24.6435 41.5422 24.7535 41.8255 24.8321C41.9042 25.3351 42.0144 25.8539 42.1089 26.3569C42.2034 26.8442 42.2978 27.3472 42.345 27.8345C42.3923 28.1961 42.4237 28.5576 42.5025 28.9034C43.5415 28.8091 44.6277 28.5419 45.5722 28.1175C45.5722 27.976 45.525 27.7873 45.5093 27.6459C45.4778 27.4101 45.4463 27.1743 45.3991 26.9385C45.3204 26.4669 45.2102 25.9953 45.1 25.5395C45.0527 25.3508 45.0055 25.1465 44.9583 24.9579C45.3518 24.8793 45.7297 24.7849 46.0917 24.6592H46.1075C46.3279 25.6495 46.5798 26.6241 46.7057 27.6302C46.7214 27.693 46.7214 27.7559 46.7214 27.8188C46.8474 28.6205 46.5798 29.0606 45.8713 29.3436Z" fill="#F7931E"/>
<path d="M42.2969 50.3286C43.0185 50.3286 43.6035 49.2025 43.6035 47.8134C43.6035 46.4244 43.0185 45.2983 42.2969 45.2983C41.5752 45.2983 40.9902 46.4244 40.9902 47.8134C40.9902 49.2025 41.5752 50.3286 42.2969 50.3286Z" fill="#F2F2F2"/>
<path d="M56.6872 46.6665C57.2436 46.6665 57.6947 45.8009 57.6947 44.733C57.6947 43.6652 57.2436 42.7996 56.6872 42.7996C56.1308 42.7996 55.6797 43.6652 55.6797 44.733C55.6797 45.8009 56.1308 46.6665 56.6872 46.6665Z" fill="#F2F2F2"/>
<path d="M41.6207 56.596C43.2683 54.9509 43.2683 52.2835 41.6207 50.6383C39.9731 48.9932 37.3018 48.9932 35.6542 50.6383C34.0065 52.2835 34.0065 54.9509 35.6542 56.596C37.3018 58.2412 39.9731 58.2412 41.6207 56.596Z" fill="#F2AAAA"/>
<path d="M39.9981 51.0363C40.0138 51.4764 39.3684 51.8694 38.5498 51.9166C37.7312 51.9637 37.0542 51.6336 37.0227 51.1935C37.007 50.7533 37.6524 50.3604 38.471 50.3132C39.2897 50.2818 39.9666 50.5961 39.9981 51.0363Z" fill="#F9C5C5"/>
<path d="M64.6576 51.738C66.2606 50.8652 66.8517 48.8601 65.9776 47.2594C65.1036 45.6587 63.0955 45.0685 61.4925 45.9413C59.8894 46.814 59.2984 48.8191 60.1724 50.4198C61.0464 52.0205 63.0545 52.6107 64.6576 51.738Z" fill="#F2AAAA"/>
<path d="M64.1281 46.8095C64.1438 47.1553 63.6401 47.454 62.9946 47.5012C62.3492 47.5326 61.814 47.2811 61.7982 46.9353C61.7825 46.5894 62.2862 46.2908 62.9317 46.2436C63.5771 46.2122 64.1123 46.4637 64.1281 46.8095Z" fill="#F9C5C5"/>
<path d="M64.6188 55.2808C61.7379 54.0547 58.7468 53.0801 55.9604 51.6496C53.5203 50.4078 50.9385 48.27 51.0015 45.3933C48.8763 45.2833 46.814 46.7295 46.1843 48.883C45.8695 49.9677 45.9797 51.1781 46.5621 52.1369C47.79 54.1176 50.7024 54.935 52.7647 55.5166C55.252 56.224 57.8338 56.5383 60.3998 56.7427C62.3046 56.8842 64.2252 56.9785 66.1301 57.1042C67.1061 57.1671 68.0821 57.2457 69.0424 57.3558C69.1369 57.3715 69.2471 57.3872 69.3415 57.4029C67.783 56.6641 66.2088 55.9567 64.6188 55.2808Z" fill="#F2F2F2"/>
<path d="M60.571 55.4231C60.0672 54.4956 58.6032 54.4327 57.517 55.1558C56.2576 55.989 55.313 57.1208 53.7702 57.4823C51.7709 57.9382 49.9133 57.1522 48.1502 56.2719C47.001 55.6903 45.3637 55.1716 44.6081 56.6177C44.2618 57.2937 44.309 58.1425 44.6396 58.8342C44.8128 59.2272 45.0804 59.5887 45.3795 59.9188C45.8203 60.3904 46.3555 60.7834 46.9065 61.0506C50.0393 62.5754 54.0379 61.7894 57.0762 60.359C57.6744 60.076 58.493 59.6044 59.2172 59.0071C60.3978 58.0325 61.2952 56.7435 60.571 55.4231Z" fill="#F2F2F2"/>
<path d="M59.6892 57.859C58.9807 58.4564 58.1621 58.928 57.5482 59.2109C54.5099 60.6414 50.5113 61.4273 47.3785 59.9026C46.8276 59.6353 46.2766 59.2423 45.8515 58.7708C45.5524 58.4407 45.2848 58.0791 45.1116 57.6861C44.7968 56.9945 44.7338 56.1456 45.0801 55.4697C45.8358 54.0235 47.473 54.5422 48.6222 55.1239C50.3854 56.0042 52.243 56.7901 54.2423 56.3343C55.7693 55.9884 56.7296 54.8566 57.989 54.0078C59.0752 53.2847 60.5392 53.3633 61.043 54.275C61.7514 55.5954 60.8541 56.8844 59.6892 57.859Z" fill="#CE5959"/>
<path d="M59.6912 57.8591C58.9828 58.4565 58.1642 58.9281 57.5502 59.211C54.5119 60.6415 50.5133 61.4274 47.3805 59.9027C46.8295 59.6354 46.2786 59.2424 45.8535 58.7709C48.451 57.5605 51.4893 57.0574 54.1498 57.0103C56.0232 56.9788 57.8965 57.3247 59.6912 57.8591Z" fill="#DD7878"/>
<path d="M79.1798 60.2015C78.9437 60.6102 78.4714 60.9088 77.9676 60.9717C77.7945 60.9874 77.6213 60.9874 77.4481 60.9717C77.2277 60.956 76.9916 60.9088 76.7712 60.846C76.6138 60.8145 76.4721 60.7674 76.3147 60.7202C76.2045 60.6888 76.0943 60.6573 75.9841 60.6259C75.7637 60.563 75.5433 60.5001 75.3229 60.4372C75.0868 60.3744 74.8506 60.2958 74.6145 60.2329C74.3941 60.17 74.1737 60.1071 73.9533 60.0443C72.8041 59.7299 71.6706 59.3998 70.5214 59.0854C70.301 59.0225 70.0806 58.9596 69.876 58.9125C69.6084 58.8339 69.3407 58.771 69.0731 58.6924C68.8527 58.6295 68.6323 58.5666 68.4119 58.5195C68.0971 58.4409 67.7822 58.3466 67.4516 58.268C67.2312 58.2051 67.0108 58.1422 66.7905 58.0951C66.0191 57.8907 65.2319 57.6706 64.4606 57.4663C64.2402 57.4034 64.0198 57.3405 63.7836 57.2776C63.0122 57.0733 62.2566 56.8689 61.4852 56.6489C61.2648 56.586 61.0444 56.5231 60.824 56.4602C59.848 56.193 58.872 55.9258 57.8959 55.6428C57.6755 55.58 57.4551 55.5171 57.2347 55.4542C56.8097 55.3284 56.3846 55.2027 55.9596 55.0769C55.7392 55.0141 55.5188 54.9512 55.2984 54.8883C54.9993 54.794 54.7002 54.7154 54.4011 54.6211C54.1807 54.5582 53.9603 54.4953 53.7399 54.4167C53.0157 54.1967 52.2916 53.9766 51.5674 53.7408C51.5045 53.7251 51.4415 53.6936 51.3628 53.6779C51.2211 53.6308 51.0637 53.5836 50.9062 53.5364C50.1978 53.3006 49.4737 53.0491 48.8597 52.6719C48.6236 52.5304 48.4032 52.3732 48.2143 52.1846C47.742 51.7444 47.4114 51.1785 47.3012 50.424C47.2068 49.8267 47.2697 49.1979 47.4272 48.5848C47.6948 47.5316 48.293 46.5256 49.0801 45.8182C50.0247 44.9694 51.1266 44.765 52.2759 44.9222C52.575 44.9536 52.8583 45.0165 53.1574 45.0951C53.7399 45.2523 54.3224 45.4724 54.8891 45.7396C55.1095 45.8339 55.3142 45.944 55.5346 46.054C56.2115 46.3998 56.8727 46.7928 57.4709 47.1544C57.6755 47.2801 57.8802 47.4059 58.0691 47.5159C58.4154 47.7203 58.7303 47.9089 59.0294 48.0818C59.4702 48.3333 59.911 48.5848 60.3675 48.8206C60.5722 48.9307 60.7611 49.0407 60.9657 49.1507C61.3121 49.3394 61.6584 49.528 62.0047 49.7166C62.2094 49.8267 62.414 49.9367 62.6029 50.0467C62.8548 50.1882 63.1224 50.3297 63.3743 50.4712C63.579 50.5812 63.7836 50.6912 63.9883 50.7855C64.7597 51.1942 65.5311 51.6029 66.3024 51.9959C66.5071 52.106 66.7117 52.2003 66.9164 52.3103C67.2627 52.4832 67.6091 52.6719 67.9554 52.8448C68.1601 52.9548 68.3647 53.0491 68.5694 53.1592C68.774 53.2692 68.9629 53.3635 69.1676 53.4578C69.3722 53.5679 69.5769 53.6622 69.7815 53.7722C70.4742 54.1181 71.1511 54.4639 71.8438 54.8097C72.0485 54.9197 72.2531 55.0141 72.442 55.1084C72.8356 55.3127 73.2134 55.5014 73.607 55.69C73.8116 55.8 74.0163 55.8943 74.2209 56.0044C74.5515 56.1773 74.8821 56.3345 75.2127 56.5074C75.4174 56.6017 75.622 56.7118 75.8267 56.8061C75.9683 56.8689 76.11 56.9475 76.2517 57.0104C76.5823 57.1833 77.1018 57.4034 77.6213 57.6706C77.826 57.7807 78.0306 57.9064 78.2195 58.0322C78.6446 58.3151 78.9909 58.6295 79.1798 58.9911C79.4159 59.4626 79.3687 59.8556 79.1798 60.2015Z" fill="#F7931E"/>
<path d="M79.1778 60.2013C78.9417 60.61 78.4694 60.9087 77.9657 60.9716C77.7925 60.9873 77.6193 60.9873 77.4462 60.9716C77.2258 60.9559 76.9896 60.9087 76.7692 60.8458C76.6118 60.8144 76.4701 60.7672 76.3127 60.7201C76.2025 60.6886 76.0923 60.6572 75.9821 60.6258C75.7617 60.5629 75.5413 60.5 75.3209 60.4371C75.0848 60.3742 74.8486 60.2956 74.6125 60.2328C74.3921 60.1699 74.1717 60.107 73.9513 60.0441C72.8021 59.7297 71.6687 59.3996 70.5195 59.0853C70.2991 59.0224 70.0787 58.9595 69.874 58.9123C69.6064 58.8337 69.3388 58.7709 69.0711 58.6923C68.8507 58.6294 68.6304 58.5665 68.41 58.5194C68.0951 58.4408 67.7803 58.3464 67.4497 58.2678C67.2293 58.205 67.0089 58.1421 66.7885 58.0949C66.0171 57.8906 65.23 57.6705 64.4586 57.4662C64.2382 57.4033 64.0178 57.3404 63.7817 57.2775C63.0103 57.0732 62.2546 56.8688 61.4833 56.6487C61.2629 56.5859 61.0425 56.523 60.8221 56.4601C59.846 56.1929 58.87 55.9257 57.894 55.6427C57.6736 55.5798 57.4532 55.517 57.2328 55.4541C56.8077 55.3283 56.3827 55.2026 55.9576 55.0768C55.7372 55.0139 55.5169 54.9511 55.2965 54.8882C54.9973 54.7939 54.6982 54.7153 54.3991 54.621C54.1787 54.5581 53.9583 54.4952 53.7379 54.4166C53.0138 54.1965 52.2896 53.9765 51.5655 53.7407C51.5025 53.7249 51.4395 53.6935 51.3608 53.6778C51.2191 53.6306 51.0617 53.5835 50.9043 53.5363C50.1959 53.3005 49.4717 53.049 48.8578 52.6718C48.6216 52.5303 48.4012 52.3731 48.2123 52.1845C47.7401 51.7443 47.4095 51.1784 47.2993 50.4239C47.2048 49.8265 47.2678 49.1978 47.4252 48.5847C57.6421 53.4734 68.1896 57.9377 79.1778 60.2013Z" fill="#E87E13"/>
<path d="M53.189 45.1105C52.764 45.4249 52.3547 45.7707 51.9769 46.1323C50.4499 47.6099 49.3322 49.5277 49.0016 51.6498C48.9544 51.9956 48.9229 52.3414 48.9072 52.6715C48.671 52.5301 48.4506 52.3729 48.2617 52.1842C48.2932 51.8227 48.3404 51.4454 48.4191 51.0839C48.6553 49.9835 49.0803 48.9146 49.6628 47.9557C50.3554 46.7925 51.2842 45.7864 52.3232 44.9219C52.6066 44.969 52.8899 45.0319 53.189 45.1105Z" fill="#E2760A"/>
<path d="M55.5669 46.0693C55.2836 46.3679 55.0159 46.6666 54.7641 46.9653C53.4417 48.5372 52.3869 50.3607 51.8674 52.357C51.7415 52.8129 51.6628 53.2688 51.584 53.7403C51.5211 53.7246 51.4581 53.6932 51.3794 53.6775C51.2377 53.6303 51.0803 53.5831 50.9229 53.536C51.1747 51.9012 51.71 50.3449 52.5601 48.8988C53.2055 47.767 54.0084 46.7138 54.9057 45.7549C55.1419 45.8492 55.3623 45.9592 55.5669 46.0693Z" fill="#E2760A"/>
<path d="M58.1153 47.5314C57.9736 47.6886 57.832 47.8301 57.6903 47.9873C56.2577 49.6064 55.14 51.5084 54.6362 53.6148C54.5575 53.9449 54.4945 54.275 54.4473 54.6051C54.2269 54.5423 54.0065 54.4794 53.7861 54.4008C54.038 52.8289 54.6047 51.3198 55.4076 49.9365C56.0058 48.9304 56.7142 48.003 57.5171 47.1384C57.7218 47.2799 57.9107 47.4057 58.1153 47.5314Z" fill="#E2760A"/>
<path d="M60.9976 49.1661C60.9346 49.2605 60.8559 49.3391 60.7929 49.4334C59.5808 51.0525 58.6677 52.9702 58.101 54.9037C58.038 55.1395 57.975 55.391 57.9278 55.6268C57.7074 55.5639 57.487 55.5011 57.2666 55.4382C57.5815 53.992 58.1639 52.6087 58.8251 51.304C59.2816 50.4237 59.8012 49.5906 60.3994 48.8203C60.604 48.9461 60.8087 49.0561 60.9976 49.1661Z" fill="#E2760A"/>
<path d="M64.0199 50.7855C63.9726 50.8484 63.9412 50.9113 63.8939 50.9742C62.7605 52.6876 61.9418 54.6211 61.501 56.6174C61.2806 56.5545 61.0602 56.4917 60.8398 56.4288C61.0917 55.2813 61.4696 54.1652 61.9418 53.0963C62.3511 52.1688 62.8392 51.2885 63.4059 50.4397C63.6263 50.5812 63.8152 50.6912 64.0199 50.7855Z" fill="#E2760A"/>
<path d="M66.9463 52.326C66.9306 52.3417 66.9306 52.3574 66.9148 52.3574C65.8444 53.8979 65.0257 55.6427 64.4748 57.4348C64.2544 57.3719 64.034 57.309 63.7979 57.2461C64.1127 56.1929 64.5535 55.1712 65.0415 54.1966C65.4193 53.4263 65.8443 52.7032 66.3324 51.9958C66.537 52.1059 66.7417 52.2159 66.9463 52.326Z" fill="#E2760A"/>
<path d="M69.8116 53.788C69.8116 53.8037 69.8116 53.8037 69.8116 53.788C68.7411 55.1084 67.9383 56.6332 67.4502 58.2366C67.2298 58.1737 67.0095 58.1108 66.7891 58.0637C67.2928 56.3974 68.1114 54.8412 69.1819 53.4736C69.4023 53.5837 69.607 53.6937 69.8116 53.788Z" fill="#E2760A"/>
<path d="M72.49 55.1395C71.6084 56.3184 70.9472 57.6703 70.5536 59.0851C70.3333 59.0222 70.1129 58.9593 69.9082 58.9121C70.3333 57.4502 71.0102 56.0669 71.8918 54.8408C72.0807 54.9351 72.2853 55.0452 72.49 55.1395Z" fill="#E2760A"/>
<path d="M75.8736 56.8525C75.3069 57.9214 74.8976 59.0532 74.6299 60.2164C74.4095 60.1535 74.1891 60.0907 73.9688 60.0278C74.2521 58.8174 74.6772 57.6384 75.2596 56.5381C75.4643 56.6481 75.6689 56.7424 75.8736 56.8525Z" fill="#E2760A"/>
<path d="M78.2513 58.0797C77.9364 58.8342 77.7003 59.6359 77.5429 60.4533C77.5114 60.6263 77.4799 60.7834 77.4484 60.9564C77.228 60.9406 76.9919 60.8935 76.7715 60.8306C76.803 60.5791 76.8502 60.3276 76.8974 60.0918C77.0706 59.2901 77.3225 58.4884 77.6373 57.7339C77.8577 57.8439 78.0624 57.954 78.2513 58.0797Z" fill="#E2760A"/>
<path d="M74.2701 56.0353C74.0969 56.3026 73.9395 56.5698 73.7821 56.8527C73.7034 57.0099 73.4672 57.0571 73.3098 56.9785C73.1524 56.8842 73.1052 56.6798 73.1839 56.5069C73.3256 56.2397 73.4672 55.9725 73.6404 55.7209C73.8608 55.831 74.0655 55.941 74.2701 56.0353Z" fill="#E2760A"/>
<path d="M69.214 58.2357C69.1668 58.3772 69.1195 58.5344 69.0723 58.6759C68.8519 58.613 68.6315 58.5501 68.4111 58.503C68.4584 58.3458 68.5056 58.2043 68.5528 58.0471C68.6945 57.6384 69.3557 57.8113 69.214 58.2357Z" fill="#E2760A"/>
<path d="M68.6013 53.175C68.318 53.5208 68.0503 53.8981 67.8142 54.2911C67.5938 54.6684 66.9955 54.3225 67.2159 53.9453C67.4363 53.568 67.6882 53.2064 67.9716 52.8606C68.192 52.9706 68.3967 53.065 68.6013 53.175Z" fill="#E2760A"/>
<path d="M64.3975 52.9227C64.2243 52.8284 64.0354 52.8913 63.9252 53.0485C63.5631 53.6144 63.2955 54.2274 63.1223 54.8719C63.0751 55.0448 63.1853 55.2492 63.3584 55.2963C63.5316 55.3435 63.7363 55.2492 63.7835 55.0606C63.815 54.9034 63.8622 54.7619 63.9094 54.6204C63.9409 54.5418 63.9567 54.4632 63.9881 54.3846C64.0039 54.3532 64.0196 54.306 64.0354 54.2746C64.0354 54.2746 64.0354 54.2746 64.0354 54.2589C64.0354 54.2432 64.0511 54.2274 64.0511 54.2274C64.1771 53.9445 64.3345 53.6615 64.5077 53.3943C64.6179 53.2371 64.5549 53.0013 64.3975 52.9227Z" fill="#E2760A"/>
<path d="M62.634 50.0471C62.4451 50.3458 62.2719 50.6602 62.083 50.9589C61.9886 51.1161 61.7839 51.1789 61.6107 51.0846C61.4533 50.9903 61.3904 50.7702 61.4848 50.613C61.658 50.3144 61.8311 50.0157 62.02 49.717C62.2404 49.8428 62.4451 49.9528 62.634 50.0471Z" fill="#E2760A"/>
<path d="M56.5266 53.882C56.3377 54.275 56.1488 54.668 55.9756 55.0609C55.7552 54.9981 55.5349 54.9352 55.3145 54.8723C55.4876 54.4164 55.708 53.9763 55.9284 53.5362C56.0071 53.3632 56.2433 53.3318 56.4007 53.4104C56.5739 53.5204 56.6211 53.7248 56.5266 53.882Z" fill="#E2760A"/>
<path d="M55.9112 47.4057C55.7852 47.2957 55.5491 47.2642 55.4231 47.4057C55.0138 47.8773 54.6517 48.3803 54.3369 48.9148C54.2424 49.072 54.2897 49.2921 54.4628 49.3864C54.6203 49.4807 54.8407 49.4335 54.9351 49.2606C55.0768 49.0091 55.2342 48.7733 55.4074 48.5218C55.4546 48.4589 55.4861 48.4118 55.5333 48.3489C55.5491 48.3174 55.5806 48.286 55.5963 48.2703C55.612 48.2546 55.612 48.2388 55.6278 48.2231C55.7065 48.0974 55.8167 47.9873 55.9112 47.8773C56.0214 47.7515 56.0528 47.5472 55.9112 47.4057Z" fill="#E2760A"/>
<path d="M50.5112 49.9209C50.3065 49.8737 50.1649 49.9837 50.0861 50.1567C49.8815 50.6754 49.6926 51.1941 49.5666 51.7443C49.5194 51.9172 49.6296 52.1216 49.8028 52.1687C49.9759 52.2159 50.1806 52.1216 50.2278 51.933C50.3695 51.3985 50.5427 50.864 50.7473 50.3453C50.826 50.1724 50.6844 49.9523 50.5112 49.9209Z" fill="#E2760A"/>
<path d="M49.5839 46.1317C49.4107 46.0374 49.2218 46.1003 49.1116 46.2575C48.844 46.6505 48.6079 47.0434 48.3875 47.4679C48.3088 47.6251 48.3403 47.8451 48.5134 47.9395C48.6709 48.0181 48.8913 47.9866 48.9857 47.8137C49.2061 47.405 49.4422 46.9963 49.7098 46.6033C49.8043 46.4461 49.7413 46.2103 49.5839 46.1317Z" fill="#E2760A"/>
<path d="M76.1722 59.9181C76.1093 60.1539 76.062 60.374 75.9991 60.6097C75.7787 60.5469 75.5583 60.484 75.3379 60.4211C75.3851 60.1853 75.4481 59.9653 75.5111 59.7452C75.6213 59.3208 76.2824 59.4937 76.1722 59.9181Z" fill="#E2760A"/>
<path opacity="0.3" d="M53.3928 46.8717C53.1252 46.9189 52.9048 47.0446 52.8261 47.2804C52.6529 47.7991 53.4873 48.3808 53.8651 48.5694C55.8801 49.6069 57.9266 50.5658 59.9259 51.619C62.0354 52.7351 64.1449 53.8511 66.4118 54.6214C66.9471 54.81 69.3242 55.4074 68.663 54.1341C68.2695 53.3795 67.136 52.9866 66.4433 52.5936C64.6172 51.5718 62.5864 50.9273 60.6973 50.047C59.4537 49.4654 58.2258 48.8366 57.0136 48.1764C55.8959 47.5948 54.7309 46.6202 53.3928 46.8717Z" fill="white"/>
<path d="M42.9853 49.4181C43.707 49.4181 44.292 48.2921 44.292 46.903C44.292 45.514 43.707 44.3879 42.9853 44.3879C42.2637 44.3879 41.6787 45.514 41.6787 46.903C41.6787 48.2921 42.2637 49.4181 42.9853 49.4181Z" fill="#282828"/>
<path d="M58.3666 43.8222C58.3666 44.8911 57.9101 45.7556 57.3591 45.7556C56.8081 45.7556 56.3516 44.8911 56.3516 43.8222C56.3516 42.7532 56.8081 41.8887 57.3591 41.8887C57.9101 41.8887 58.3666 42.7532 58.3666 43.8222Z" fill="#282828"/>
<path d="M59.893 84.9189C62.0857 84.3354 63.3896 82.0875 62.8053 79.898C62.221 77.7084 59.9697 76.4065 57.777 76.9899C55.5842 77.5734 54.2803 79.8213 54.8647 82.0109C55.449 84.2004 57.7002 85.5024 59.893 84.9189Z" fill="#F2F2F2"/>
<path d="M64.7273 95.2055C66.2447 93.5206 66.1069 90.9264 64.4195 89.4112C62.7321 87.896 60.1341 88.0336 58.6167 89.7185C57.0993 91.4034 57.237 93.9976 58.9244 95.5128C60.6118 97.028 63.2099 96.8904 64.7273 95.2055Z" fill="#F2F2F2"/>
<path d="M60.5607 83.5831C62.8009 83.2223 64.3241 81.1166 63.9628 78.8797C63.6016 76.6428 61.4927 75.1219 59.2525 75.4826C57.0123 75.8433 55.4891 77.9491 55.8504 80.186C56.2117 82.4229 58.3206 83.9438 60.5607 83.5831Z" fill="#333333"/>
<path d="M61.3901 77.1798C61.4215 77.6828 60.8706 78.123 60.1779 78.1544C59.4852 78.1859 58.9028 77.8086 58.887 77.3056C58.8555 76.8025 59.4065 76.3624 60.0992 76.3309C60.7918 76.2995 61.3743 76.6768 61.3901 77.1798Z" fill="#666666"/>
<path d="M66.4735 92.7759C67.4331 90.7225 66.5441 88.2811 64.4877 87.3229C62.4313 86.3646 59.9863 87.2524 59.0267 89.3057C58.067 91.3591 58.9561 93.8005 61.0125 94.7587C63.0688 95.717 65.5138 94.8292 66.4735 92.7759Z" fill="#333333"/>
<path d="M64.4614 88.6697C64.4929 89.1727 63.9419 89.6129 63.2492 89.6443C62.5565 89.6758 61.9741 89.2985 61.9583 88.7955C61.9268 88.2925 62.4778 87.8524 63.1705 87.8209C63.8632 87.7895 64.4456 88.1667 64.4614 88.6697Z" fill="#666666"/>
</svg>
